<svg width="298" height="52" viewBox="0 0 298 52" fill="none" xmlns="http://www.w3.org/2000/svg">
<path d="M23.6397 33.32C23.533 33.3467 23.373 33.4933 23.1597 33.76C22.973 34.0267 22.8397 34.3067 22.7597 34.6C22.6264 35.0267 22.6664 35.3733 22.8797 35.64C23.4397 36.3067 24.1597 37.0933 25.0397 38C25.9197 38.88 26.7997 39.72 27.6797 40.52C28.5864 41.32 29.3597 41.9333 29.9997 42.36C29.5197 43.64 28.7597 44.6667 27.7197 45.44C26.7064 46.1867 25.573 46.5467 24.3197 46.52C23.0664 46.4933 21.8397 45.9333 20.6397 44.84C20.4797 44.68 20.173 44.3333 19.7197 43.8C19.2664 43.24 18.7464 42.5867 18.1597 41.84C17.573 41.0933 16.9864 40.3467 16.3997 39.6C15.813 38.8533 15.3064 38.2 14.8797 37.64C14.453 37.08 14.1864 36.7333 14.0797 36.6C13.573 35.9333 13.093 35.7867 12.6397 36.16C12.1864 36.5333 11.9064 37.3067 11.7997 38.48C11.7464 39.1733 11.7464 39.9733 11.7997 40.88C11.8797 41.76 11.9864 42.5467 12.1197 43.24C12.2797 43.9333 12.4397 44.3467 12.5997 44.48C12.0397 44.9067 11.3464 45.3067 10.5197 45.68C9.69304 46.0533 8.74637 46.28 7.6797 46.36C7.2797 46.3867 6.81303 46.28 6.2797 46.04C5.74637 45.8 5.2797 45.4133 4.8797 44.88C4.50637 44.32 4.30637 43.6267 4.2797 42.8C4.2797 42.5867 4.26637 42.0267 4.2397 41.12C4.2397 40.2133 4.22637 39.1067 4.1997 37.8C4.1997 36.4667 4.1997 35.0933 4.1997 33.68C4.1997 32.2667 4.18637 30.9333 4.1597 29.68C4.1597 28.4267 4.1597 27.4133 4.1597 26.64C4.1597 25.8667 4.1597 25.48 4.1597 25.48C4.1597 23.9067 4.1197 22.6 4.0397 21.56C3.9597 20.4933 3.6397 19.68 3.0797 19.12C2.57303 18.6133 2.18637 17.88 1.9197 16.92C1.6797 15.96 1.57303 15.0533 1.5997 14.2C1.70637 14.2267 2.02637 14.2667 2.5597 14.32C3.09303 14.3467 3.61303 14.3867 4.1197 14.44C4.46637 14.44 4.9597 14.44 5.5997 14.44C6.26637 14.4133 6.97303 14.3867 7.7197 14.36C8.46637 14.3333 9.1597 14.32 9.7997 14.32C10.4397 14.2933 10.9197 14.2667 11.2397 14.24C11.4797 14.24 11.9197 14.24 12.5597 14.24C13.2264 14.2133 13.9997 14.2 14.8797 14.2C15.7597 14.2 16.653 14.2133 17.5597 14.24C18.4664 14.24 19.3064 14.2667 20.0797 14.32C20.853 14.3733 21.453 14.44 21.8797 14.52C23.6397 14.84 24.9997 15.4267 25.9597 16.28C26.9197 17.1333 27.5997 18.16 27.9997 19.36C28.4264 20.56 28.6797 21.8667 28.7597 23.28C28.813 24.48 28.6797 25.7333 28.3597 27.04C28.0397 28.3467 27.493 29.56 26.7197 30.68C25.9464 31.8 24.9197 32.68 23.6397 33.32ZM11.8797 24.72C11.8797 25.5733 12.0797 26.2133 12.4797 26.64C12.8797 27.04 13.253 27.28 13.5997 27.36C14.0797 27.4667 14.693 27.48 15.4397 27.4C16.1864 27.2933 16.933 27.1067 17.6797 26.84C18.4264 26.5467 19.053 26.1733 19.5597 25.72C20.093 25.2667 20.3597 24.7467 20.3597 24.16C20.3597 23.3867 20.0397 22.8 19.3997 22.4C18.7597 21.9733 17.9464 21.7067 16.9597 21.6C15.9997 21.4933 15.0397 21.52 14.0797 21.68C13.333 21.7867 12.773 22.12 12.3997 22.68C12.0264 23.24 11.853 23.92 11.8797 24.72ZM53.7597 33.8C53.9997 36.04 53.8264 37.96 53.2397 39.56C52.653 41.16 51.7864 42.48 50.6397 43.52C49.5197 44.56 48.253 45.3333 46.8397 45.84C45.453 46.32 44.0664 46.56 42.6797 46.56C41.3197 46.56 39.933 46.32 38.5197 45.84C37.133 45.3333 35.8797 44.56 34.7597 43.52C33.6664 42.48 32.813 41.16 32.1997 39.56C31.613 37.96 31.4397 36.04 31.6797 33.8C31.9197 31.7467 32.533 29.9467 33.5197 28.4C34.533 26.8533 35.813 25.64 37.3597 24.76C38.933 23.8533 40.653 23.3467 42.5197 23.24C42.6264 23.2133 42.733 23.1333 42.8397 23C42.973 22.84 43.1864 22.7067 43.4797 22.6C43.7997 22.4667 44.2797 22.4267 44.9197 22.48C46.4397 22.9067 47.8264 23.64 49.0797 24.68C50.333 25.72 51.373 27.0133 52.1997 28.56C53.053 30.1067 53.573 31.8533 53.7597 33.8ZM42.3197 40.16C43.173 40.16 43.9064 39.96 44.5197 39.56C45.133 39.16 45.6264 38.6533 45.9997 38.04C46.373 37.4 46.6397 36.7333 46.7997 36.04C46.9864 35.3467 47.0797 34.72 47.0797 34.16C47.0797 33.0133 46.893 32.12 46.5197 31.48C46.1464 30.84 45.293 30.2667 43.9597 29.76C43.5864 29.6 43.333 29.3867 43.1997 29.12C43.0664 28.8533 42.8664 28.7067 42.5997 28.68C41.7197 28.5733 40.973 28.8133 40.3597 29.4C39.7464 29.9867 39.2797 30.7733 38.9597 31.76C38.6397 32.7467 38.4797 33.8133 38.4797 34.96C38.4797 36.1067 38.693 37.0667 39.1197 37.84C39.573 38.6133 40.093 39.2 40.6797 39.6C41.293 39.9733 41.8397 40.16 42.3197 40.16ZM79.1494 33.8C79.3894 36.04 79.2161 37.96 78.6294 39.56C78.0427 41.16 77.1894 42.48 76.0694 43.52C74.9494 44.56 73.6961 45.3333 72.3094 45.84C70.9227 46.32 69.5361 46.56 68.1494 46.56C67.5094 46.56 66.7227 46.4933 65.7894 46.36C64.8827 46.2267 64.0561 46.28 63.3094 46.52C63.0694 46.6 62.8427 46.6667 62.6294 46.72C62.4161 46.7733 62.1361 46.7867 61.7894 46.76C61.4694 46.7333 61.0561 46.5867 60.5494 46.32C60.0427 46.0533 59.5627 45.6667 59.1094 45.16C58.6561 44.6267 58.3361 44 58.1494 43.28C57.9361 42.48 57.7494 41.3867 57.5894 40C57.4561 38.5867 57.3494 37.0133 57.2694 35.28C57.1894 33.5467 57.1361 31.76 57.1094 29.92C57.0827 28.0533 57.0561 26.24 57.0294 24.48C57.0294 22.6933 57.0294 21.08 57.0294 19.64C57.0561 18.2 57.0694 17.0267 57.0694 16.12C57.0694 15.1867 57.0561 14.64 57.0294 14.48C57.4294 14.4 58.0161 14.3867 58.7894 14.44C59.5894 14.4667 60.4161 14.6 61.2694 14.84C62.1227 15.0533 62.8827 15.4267 63.5494 15.96C64.2161 16.4667 64.6294 17.1733 64.7894 18.08C64.9227 18.96 65.0294 19.8133 65.1094 20.64C65.2161 21.44 65.5627 22.0267 66.1494 22.4C66.3627 22.5333 66.6561 22.64 67.0294 22.72C67.4294 22.7733 67.8427 22.8133 68.2694 22.84C70.2161 22.8667 71.9627 23.3733 73.5094 24.36C75.0827 25.32 76.3627 26.6267 77.3494 28.28C78.3361 29.9067 78.9361 31.7467 79.1494 33.8ZM68.5894 40.52C69.5227 40.4933 70.2694 40.2267 70.8294 39.72C71.4161 39.1867 71.8427 38.52 72.1094 37.72C72.3761 36.92 72.5094 36.1067 72.5094 35.28C72.5094 34.4267 72.4161 33.5733 72.2294 32.72C72.0427 31.84 71.6827 31.1067 71.1494 30.52C70.6427 29.9067 69.9094 29.6 68.9494 29.6C68.1761 29.6 67.5094 29.88 66.9494 30.44C66.3894 30.9733 65.9627 31.6533 65.6694 32.48C65.3761 33.28 65.2161 34.0667 65.1894 34.84C65.1627 35.5867 65.2694 36.4133 65.5094 37.32C65.7494 38.2 66.1227 38.96 66.6294 39.6C67.1627 40.2133 67.8161 40.52 68.5894 40.52ZM104.58 33.8C104.82 36.04 104.647 37.96 104.06 39.56C103.474 41.16 102.607 42.48 101.46 43.52C100.34 44.56 99.0733 45.3333 97.66 45.84C96.2733 46.32 94.8867 46.56 93.5 46.56C92.14 46.56 90.7533 46.32 89.34 45.84C87.9533 45.3333 86.7 44.56 85.58 43.52C84.4867 42.48 83.6333 41.16 83.02 39.56C82.4333 37.96 82.26 36.04 82.5 33.8C82.74 31.7467 83.3533 29.9467 84.34 28.4C85.3533 26.8533 86.6333 25.64 88.18 24.76C89.7533 23.8533 91.4733 23.3467 93.34 23.24C93.4467 23.2133 93.5533 23.1333 93.66 23C93.7933 22.84 94.0067 22.7067 94.3 22.6C94.62 22.4667 95.1 22.4267 95.74 22.48C97.26 22.9067 98.6467 23.64 99.9 24.68C101.154 25.72 102.194 27.0133 103.02 28.56C103.874 30.1067 104.394 31.8533 104.58 33.8ZM93.14 40.16C93.9933 40.16 94.7267 39.96 95.34 39.56C95.9533 39.16 96.4467 38.6533 96.82 38.04C97.1933 37.4 97.46 36.7333 97.62 36.04C97.8067 35.3467 97.9 34.72 97.9 34.16C97.9 33.0133 97.7133 32.12 97.34 31.48C96.9667 30.84 96.1133 30.2667 94.78 29.76C94.4067 29.6 94.1533 29.3867 94.02 29.12C93.8867 28.8533 93.6867 28.7067 93.42 28.68C92.54 28.5733 91.7933 28.8133 91.18 29.4C90.5667 29.9867 90.1 30.7733 89.78 31.76C89.46 32.7467 89.3 33.8133 89.3 34.96C89.3 36.1067 89.5133 37.0667 89.94 37.84C90.3933 38.6133 90.9133 39.2 91.5 39.6C92.1133 39.9733 92.66 40.16 93.14 40.16ZM124.85 23.8C125.117 24.0667 125.317 24.56 125.45 25.28C125.61 25.9733 125.65 26.7467 125.57 27.6C125.517 28.4267 125.317 29.1867 124.97 29.88C124.65 30.5467 124.157 31 123.49 31.24C122.45 31.6133 121.69 32.28 121.21 33.24C120.73 34.2 120.45 35.4133 120.37 36.88V40.28C120.423 40.7067 120.597 41.0533 120.89 41.32C121.21 41.5867 121.517 41.7733 121.81 41.88C122.13 41.9867 122.29 42.04 122.29 42.04C122.29 42.04 122.237 42.2267 122.13 42.6C122.05 42.9733 121.89 43.4133 121.65 43.92C121.41 44.4267 121.063 44.92 120.61 45.4C120.157 45.8533 119.57 46.1733 118.85 46.36C118.477 46.44 117.97 46.4533 117.33 46.4C116.717 46.3733 116.09 46.2533 115.45 46.04C114.81 45.8267 114.277 45.5333 113.85 45.16C113.61 44.9467 113.41 44.72 113.25 44.48C113.09 44.24 112.97 43.88 112.89 43.4C112.837 42.92 112.81 42.24 112.81 41.36V37.08C112.783 35.5333 112.45 34.2533 111.81 33.24C111.17 32.2 110.33 31.3067 109.29 30.56C108.81 30.2133 108.463 29.6533 108.25 28.88C108.063 28.08 107.943 27.24 107.89 26.36C107.837 25.48 107.823 24.7333 107.85 24.12C107.983 24.1467 108.343 24.2 108.93 24.28C109.517 24.36 110.023 24.4 110.45 24.4C111.303 24.3733 111.89 24.04 112.21 23.4C112.53 22.76 112.69 21.96 112.69 21L112.65 17.44C112.89 17.4133 113.29 17.3867 113.85 17.36C114.437 17.3067 115.077 17.3067 115.77 17.36C116.463 17.4133 117.13 17.5467 117.77 17.76C118.437 17.9467 118.997 18.2533 119.45 18.68C119.93 19.1067 120.21 19.68 120.29 20.4C120.29 20.48 120.29 20.5867 120.29 20.72C120.317 20.8267 120.33 20.96 120.33 21.12H120.37C120.37 21.4667 120.41 21.88 120.49 22.36C120.597 22.84 120.743 23.24 120.93 23.56C121.117 23.8267 121.41 24.0267 121.81 24.16C122.21 24.2667 122.597 24.3333 122.97 24.36C123.37 24.36 123.663 24.3333 123.85 24.28C124.143 24.2 124.357 24.1333 124.49 24.08C124.623 24 124.743 23.9067 124.85 23.8ZM147.747 14.2C149.72 14.4933 151.28 15.0267 152.427 15.8C153.6 16.5467 154.467 17.4133 155.027 18.4C155.587 19.3867 155.947 20.36 156.107 21.32C156.267 22.2533 156.347 23.0533 156.347 23.72C156.347 24.5733 156.2 25.56 155.907 26.68C155.613 27.7733 155.12 28.8533 154.427 29.92C153.76 30.96 152.867 31.8667 151.747 32.64C150.627 33.3867 149.227 33.84 147.547 34C147.253 34.0267 146.88 34.0533 146.427 34.08C145.973 34.1067 145.56 34.1333 145.187 34.16C144.84 34.16 144.627 34.16 144.547 34.16C143.533 34.2133 142.6 34.5067 141.747 35.04C140.92 35.5733 140.253 36.2667 139.747 37.12C139.267 37.9467 139.013 38.88 138.987 39.92V41.4C138.987 42.0933 139.08 42.7333 139.267 43.32C139.453 43.88 139.6 44.2667 139.707 44.48C139.067 45.0667 138.507 45.48 138.027 45.72C137.547 45.96 136.947 46.1333 136.227 46.24C135.64 46.32 134.987 46.2667 134.267 46.08C133.573 45.8933 132.947 45.5467 132.387 45.04C131.827 44.5067 131.467 43.7733 131.307 42.84C131.28 42.68 131.267 42.1733 131.267 41.32C131.267 40.44 131.267 39.36 131.267 38.08C131.293 36.7733 131.307 35.3467 131.307 33.8C131.333 32.2533 131.347 30.7067 131.347 29.16C131.347 27.6133 131.347 26.1733 131.347 24.84C131.32 23.4 131.253 22.1867 131.147 21.2C131.067 20.2133 130.867 19.5867 130.547 19.32C129.987 18.84 129.547 18.0933 129.227 17.08C128.933 16.0667 128.8 15.1067 128.827 14.2C128.933 14.2267 129.227 14.2667 129.707 14.32C130.187 14.3467 130.693 14.3867 131.227 14.44C131.493 14.44 131.933 14.44 132.547 14.44C133.16 14.4133 133.827 14.3733 134.547 14.32C135.293 14.2667 136.013 14.2267 136.707 14.2C137.4 14.1467 137.96 14.1067 138.387 14.08C138.973 14.0267 139.747 13.9733 140.707 13.92C141.693 13.8667 142.8 13.8533 144.027 13.88C145.253 13.9067 146.493 14.0133 147.747 14.2ZM142.987 26.68C143.36 26.7067 143.827 26.68 144.387 26.6C144.973 26.4933 145.56 26.3333 146.147 26.12C146.76 25.9067 147.267 25.6133 147.667 25.24C148.067 24.84 148.267 24.36 148.267 23.8C148.267 23.0267 147.973 22.4267 147.387 22C146.827 21.5733 146.133 21.28 145.307 21.12C144.507 20.96 143.733 20.8933 142.987 20.92C141.893 20.9467 140.96 21.2533 140.187 21.84C139.413 22.4 139.027 23.0667 139.027 23.84C139.053 24.3467 139.253 24.8133 139.627 25.24C140.027 25.64 140.52 25.9733 141.107 26.24C141.72 26.5067 142.347 26.6533 142.987 26.68ZM180.09 40.92C180.09 41.16 180.13 41.52 180.21 42C180.29 42.48 180.396 42.9733 180.53 43.48C180.69 43.9867 180.85 44.44 181.01 44.84C181.17 45.2133 181.33 45.44 181.49 45.52C181.116 45.9733 180.516 46.3333 179.69 46.6C178.863 46.8933 178.036 46.9467 177.21 46.76C176.57 46.5733 175.996 46.4 175.49 46.24C174.983 46.08 174.29 46.0133 173.41 46.04C172.77 46.0667 172.13 46.1333 171.49 46.24C170.876 46.3467 170.25 46.4667 169.61 46.6C169.29 46.6533 168.73 46.6667 167.93 46.64C167.156 46.64 166.303 46.5467 165.37 46.36C164.463 46.1733 163.623 45.8533 162.85 45.4C161.836 44.7867 161.076 43.8933 160.57 42.72C160.063 41.5467 159.77 40.3467 159.69 39.12C159.69 38.8267 159.676 38.2533 159.65 37.4C159.65 36.5467 159.636 35.5333 159.61 34.36C159.61 33.1867 159.596 31.9733 159.57 30.72C159.57 29.4667 159.556 28.3067 159.53 27.24C159.53 26.1467 159.53 25.2667 159.53 24.6C159.53 23.9067 159.53 23.56 159.53 23.56C159.77 23.5333 160.17 23.5067 160.73 23.48C161.316 23.4267 161.956 23.4267 162.65 23.48C163.343 23.5333 164.01 23.6667 164.65 23.88C165.316 24.0667 165.876 24.3733 166.33 24.8C166.81 25.2267 167.09 25.8 167.17 26.52C167.223 27.1067 167.263 27.64 167.29 28.12C167.316 28.6 167.33 29.1333 167.33 29.72C167.33 30.28 167.303 30.9867 167.25 31.84C167.223 32.6667 167.183 33.72 167.13 35C167.076 36.04 167.05 36.9333 167.05 37.68C167.076 38.4267 167.263 38.9867 167.61 39.36C167.956 39.7333 168.57 39.8933 169.45 39.84C170.036 39.8133 170.516 39.5867 170.89 39.16C171.29 38.7067 171.61 38.16 171.85 37.52C172.09 36.88 172.25 36.2267 172.33 35.56C172.436 34.8933 172.49 34.3067 172.49 33.8C172.49 33.6933 172.476 33.28 172.45 32.56C172.45 31.84 172.436 30.9867 172.41 30C172.41 28.9867 172.396 27.9867 172.37 27C172.37 26.0133 172.37 25.2 172.37 24.56C172.37 23.8933 172.37 23.56 172.37 23.56C172.61 23.5333 173.01 23.5333 173.57 23.56C174.13 23.56 174.756 23.6133 175.45 23.72C176.143 23.8267 176.823 24.0133 177.49 24.28C178.156 24.5467 178.716 24.92 179.17 25.4C179.65 25.8533 179.93 26.44 180.01 27.16C180.17 28.7067 180.196 30.6 180.09 32.84C180.01 35.0533 180.01 37.7467 180.09 40.92ZM213.766 40.92C213.793 41.24 213.873 41.64 214.006 42.12C214.166 42.5733 214.313 42.9867 214.446 43.36C214.606 43.7333 214.686 43.92 214.686 43.92C214.553 44.08 214.273 44.3733 213.846 44.8C213.419 45.2267 212.873 45.6133 212.206 45.96C211.566 46.28 210.833 46.3733 210.006 46.24C208.539 45.9733 207.539 45.36 207.006 44.4C206.499 43.44 206.233 42.3467 206.206 41.12C206.206 40.9067 206.219 40.4933 206.246 39.88C206.273 39.2667 206.286 38.5867 206.286 37.84C206.313 37.0667 206.313 36.3467 206.286 35.68C206.286 34.9867 206.233 34.48 206.126 34.16C205.966 33.5467 205.726 33.1733 205.406 33.04C205.086 32.9067 204.753 32.9333 204.406 33.12C204.059 33.28 203.766 33.5467 203.526 33.92C203.286 34.2933 203.166 34.6933 203.166 35.12C203.139 35.7867 203.126 36.36 203.126 36.84C203.126 37.32 203.139 37.9467 203.166 38.72C203.166 38.9067 203.193 39.2533 203.246 39.76C203.299 40.2667 203.366 40.84 203.446 41.48C203.526 42.12 203.606 42.7467 203.686 43.36C203.793 43.9467 203.899 44.4267 204.006 44.8C203.339 45.28 202.553 45.68 201.646 46C200.766 46.32 199.633 46.32 198.246 46C197.526 45.84 196.993 45.5067 196.646 45C196.299 44.4933 196.059 43.9067 195.926 43.24C195.819 42.5467 195.766 41.84 195.766 41.12C195.766 40.4 195.766 39.7333 195.766 39.12C195.766 38.8267 195.779 38.36 195.806 37.72C195.859 37.08 195.886 36.4133 195.886 35.72C195.886 35 195.819 34.4267 195.686 34C195.579 33.6533 195.406 33.44 195.166 33.36C194.953 33.2533 194.766 33.2133 194.606 33.24C194.179 33.2667 193.806 33.3867 193.486 33.6C193.193 33.8133 192.993 34.2533 192.886 34.92C192.833 35.24 192.793 35.7733 192.766 36.52C192.766 37.24 192.766 38.0133 192.766 38.84C192.766 39.64 192.766 40.3467 192.766 40.96C192.793 41.5733 192.819 41.9333 192.846 42.04C192.926 42.4133 193.086 42.6933 193.326 42.88C193.566 43.04 193.686 43.12 193.686 43.12C193.686 43.12 193.539 43.2933 193.246 43.64C192.979 43.96 192.606 44.3333 192.126 44.76C191.646 45.1867 191.086 45.56 190.446 45.88C189.806 46.1733 189.113 46.28 188.366 46.2C187.646 46.1467 186.966 45.7733 186.326 45.08C185.713 44.3867 185.393 43.4267 185.366 42.2L185.246 26.84C185.219 25.88 185.113 25.0933 184.926 24.48C184.766 23.8667 184.686 23.56 184.686 23.56C184.953 23.5067 185.433 23.4667 186.126 23.44C186.819 23.4133 187.593 23.44 188.446 23.52C189.299 23.5733 190.073 23.76 190.766 24.08C191.193 24.2667 191.673 24.3467 192.206 24.32C192.766 24.2667 193.246 24.12 193.646 23.88C194.099 23.64 194.553 23.4267 195.006 23.24C195.486 23.0533 195.966 22.9333 196.446 22.88C197.006 22.8267 197.686 22.88 198.486 23.04C199.286 23.2 200.113 23.4933 200.966 23.92C201.499 24.1867 202.126 24.3733 202.846 24.48C203.566 24.5867 204.059 24.5467 204.326 24.36C204.859 23.9867 205.419 23.6667 206.006 23.4C206.619 23.1333 207.233 22.96 207.846 22.88C208.299 22.8267 208.833 22.8533 209.446 22.96C210.086 23.04 210.699 23.24 211.286 23.56C211.899 23.88 212.419 24.3333 212.846 24.92C213.299 25.5067 213.579 26.2533 213.686 27.16C213.766 27.9333 213.806 28.9467 213.806 30.2C213.833 31.4267 213.833 32.7333 213.806 34.12C213.779 35.48 213.753 36.7733 213.726 38C213.726 39.2 213.739 40.1733 213.766 40.92ZM229.55 22.88C231.924 22.6933 233.924 23.0933 235.55 24.08C237.177 25.04 238.417 26.3867 239.27 28.12C240.124 29.8267 240.564 31.72 240.59 33.8C240.644 35.72 240.364 37.4267 239.75 38.92C239.137 40.3867 238.297 41.64 237.23 42.68C236.164 43.6933 234.964 44.4667 233.63 45C232.324 45.5333 230.977 45.8 229.59 45.8C229.297 45.8 228.91 45.84 228.43 45.92C227.977 45.9733 227.604 46.12 227.31 46.36C227.124 46.5467 226.99 46.7467 226.91 46.96C226.857 47.1733 226.844 47.4267 226.87 47.72C226.924 48.2 227.03 48.5333 227.19 48.72C227.377 48.9333 227.537 49.16 227.67 49.4C227.377 49.72 226.964 50.0667 226.43 50.44C225.897 50.8133 225.244 51.1067 224.47 51.32C223.724 51.5333 222.83 51.56 221.79 51.4C221.15 51.2933 220.59 50.88 220.11 50.16C219.63 49.44 219.377 48.4667 219.35 47.24L219.23 28.64C219.23 27.1467 219.137 25.9333 218.95 25C218.764 24.04 218.67 23.56 218.67 23.56C219.017 23.4533 219.564 23.36 220.31 23.28C221.084 23.2 221.884 23.2533 222.71 23.44C223.03 23.52 223.43 23.6133 223.91 23.72C224.417 23.8 224.964 23.8 225.55 23.72C226.324 23.64 227.097 23.4933 227.87 23.28C228.644 23.04 229.204 22.9067 229.55 22.88ZM230.31 39.52C231.164 39.52 231.964 39.08 232.71 38.2C233.457 37.2933 233.83 36.0267 233.83 34.4C233.83 33.3067 233.644 32.3867 233.27 31.64C232.924 30.8667 232.484 30.2933 231.95 29.92C231.417 29.52 230.897 29.32 230.39 29.32C229.884 29.32 229.364 29.36 228.83 29.44C228.324 29.52 227.87 29.8267 227.47 30.36C227.097 30.8933 226.857 31.84 226.75 33.2C226.617 34.96 226.724 36.2933 227.07 37.2C227.444 38.1067 227.937 38.72 228.55 39.04C229.164 39.36 229.75 39.52 230.31 39.52Z" fill="white"/>
<rect x="244" y="5" width="54" height="21" rx="10.5" fill="#9B9999" fill-opacity="0.12"/>
<path d="M262.788 15.308C262.94 15.436 263.064 15.568 263.16 15.704C263.256 15.832 263.324 16.008 263.364 16.232C263.404 16.448 263.416 16.752 263.4 17.144C263.392 17.336 263.356 17.56 263.292 17.816C263.236 18.072 263.136 18.332 262.992 18.596C262.848 18.86 262.648 19.104 262.392 19.328C262.136 19.552 261.812 19.736 261.42 19.88C261.028 20.024 260.548 20.096 259.98 20.096H259.74C259.46 20.08 259.124 20.072 258.732 20.072C258.34 20.08 257.976 20.084 257.64 20.084C257.44 20.1 257.228 20.108 257.004 20.108C256.78 20.108 256.576 20.096 256.392 20.072C256.208 20.048 256.072 20.012 255.984 19.964C256.04 19.852 256.088 19.684 256.128 19.46C256.176 19.228 256.212 18.976 256.236 18.704C256.26 18.432 256.268 18.172 256.26 17.924C256.26 17.86 256.256 17.7 256.248 17.444C256.248 17.18 256.244 16.856 256.236 16.472C256.236 16.08 256.232 15.656 256.224 15.2C256.224 14.744 256.224 14.288 256.224 13.832C256.224 13.36 256.22 12.956 256.212 12.62C256.204 12.284 256.128 12.076 255.984 11.996C255.848 11.908 255.728 11.736 255.624 11.48C255.528 11.216 255.48 10.876 255.48 10.46C255.512 10.468 255.612 10.48 255.78 10.496C255.948 10.504 256.108 10.516 256.26 10.532C256.444 10.54 256.704 10.548 257.04 10.556C257.384 10.556 257.74 10.556 258.108 10.556C258.388 10.556 258.668 10.556 258.948 10.556C259.228 10.556 259.48 10.56 259.704 10.568C259.936 10.568 260.104 10.568 260.208 10.568C260.704 10.568 261.14 10.66 261.516 10.844C261.892 11.02 262.188 11.256 262.404 11.552C262.62 11.848 262.728 12.172 262.728 12.524C262.728 12.876 262.672 13.184 262.56 13.448C262.456 13.712 262.352 13.936 262.248 14.12C262.144 14.296 262.096 14.436 262.104 14.54C262.128 14.708 262.204 14.84 262.332 14.936C262.468 15.032 262.62 15.156 262.788 15.308ZM260.364 13.208C260.38 13.104 260.332 13.008 260.22 12.92C260.116 12.824 259.972 12.748 259.788 12.692C259.612 12.628 259.424 12.596 259.224 12.596C259.024 12.596 258.872 12.648 258.768 12.752C258.664 12.856 258.596 12.98 258.564 13.124C258.532 13.26 258.524 13.376 258.54 13.472C258.564 13.624 258.676 13.732 258.876 13.796C259.084 13.852 259.28 13.884 259.464 13.892C259.648 13.9 259.836 13.852 260.028 13.748C260.22 13.636 260.332 13.456 260.364 13.208ZM259.884 17.768C260.172 17.76 260.388 17.716 260.532 17.636C260.684 17.556 260.788 17.452 260.844 17.324C260.9 17.196 260.936 17.068 260.952 16.94C260.976 16.764 260.924 16.612 260.796 16.484C260.668 16.348 260.492 16.244 260.268 16.172C260.044 16.1 259.796 16.068 259.524 16.076C259.252 16.076 259.04 16.136 258.888 16.256C258.736 16.376 258.632 16.516 258.576 16.676C258.52 16.828 258.496 16.964 258.504 17.084C258.528 17.252 258.656 17.412 258.888 17.564C259.12 17.708 259.452 17.776 259.884 17.768ZM270.423 16.988C270.623 17.124 270.751 17.32 270.807 17.576C270.871 17.824 270.863 18.096 270.783 18.392C270.711 18.688 270.563 18.972 270.339 19.244C270.115 19.508 269.811 19.728 269.427 19.904C269.051 20.08 268.595 20.172 268.059 20.18C267.611 20.188 267.171 20.132 266.739 20.012C266.315 19.892 265.927 19.708 265.575 19.46C265.231 19.212 264.951 18.892 264.735 18.5C264.519 18.108 264.399 17.64 264.375 17.096C264.367 16.984 264.367 16.868 264.375 16.748C264.383 16.628 264.391 16.504 264.399 16.376C264.399 16.344 264.399 16.312 264.399 16.28C264.407 16.248 264.415 16.216 264.423 16.184C264.503 15.704 264.667 15.264 264.915 14.864C265.171 14.464 265.483 14.124 265.851 13.844C266.219 13.564 266.611 13.36 267.027 13.232C267.451 13.096 267.867 13.048 268.275 13.088C268.907 13.152 269.395 13.32 269.739 13.592C270.091 13.864 270.319 14.2 270.423 14.6C270.535 14.992 270.539 15.416 270.435 15.872C270.379 16.096 270.251 16.32 270.051 16.544C269.859 16.76 269.619 16.956 269.331 17.132C269.043 17.3 268.735 17.432 268.407 17.528C268.087 17.616 267.775 17.652 267.471 17.636C267.319 17.628 267.239 17.676 267.231 17.78C267.223 17.876 267.267 17.984 267.363 18.104C267.459 18.216 267.587 18.292 267.747 18.332C268.123 18.412 268.475 18.416 268.803 18.344C269.139 18.264 269.395 18.156 269.571 18.02C269.715 17.908 269.867 17.76 270.027 17.576C270.187 17.384 270.319 17.188 270.423 16.988ZM267.795 15.776C267.979 15.76 268.139 15.704 268.275 15.608C268.419 15.504 268.491 15.396 268.491 15.284C268.499 15.124 268.459 14.996 268.371 14.9C268.291 14.796 268.151 14.748 267.951 14.756C267.727 14.764 267.511 14.796 267.303 14.852C267.095 14.908 266.971 15.024 266.931 15.2C266.907 15.32 266.943 15.424 267.039 15.512C267.135 15.6 267.255 15.668 267.399 15.716C267.543 15.756 267.675 15.776 267.795 15.776ZM276.435 13.34C276.515 13.42 276.575 13.568 276.615 13.784C276.663 13.992 276.675 14.224 276.651 14.48C276.635 14.728 276.575 14.956 276.471 15.164C276.375 15.364 276.227 15.5 276.027 15.572C275.715 15.684 275.487 15.884 275.343 16.172C275.199 16.46 275.115 16.824 275.091 17.264V18.284C275.107 18.412 275.159 18.516 275.247 18.596C275.343 18.676 275.435 18.732 275.523 18.764C275.619 18.796 275.667 18.812 275.667 18.812C275.667 18.812 275.651 18.868 275.619 18.98C275.595 19.092 275.547 19.224 275.475 19.376C275.403 19.528 275.299 19.676 275.163 19.82C275.027 19.956 274.851 20.052 274.635 20.108C274.523 20.132 274.371 20.136 274.179 20.12C273.995 20.112 273.807 20.076 273.615 20.012C273.423 19.948 273.263 19.86 273.135 19.748C273.063 19.684 273.003 19.616 272.955 19.544C272.907 19.472 272.871 19.364 272.847 19.22C272.831 19.076 272.823 18.872 272.823 18.608V17.324C272.815 16.86 272.715 16.476 272.523 16.172C272.331 15.86 272.079 15.592 271.767 15.368C271.623 15.264 271.519 15.096 271.455 14.864C271.399 14.624 271.363 14.372 271.347 14.108C271.331 13.844 271.327 13.62 271.335 13.436C271.375 13.444 271.483 13.46 271.659 13.484C271.835 13.508 271.987 13.52 272.115 13.52C272.371 13.512 272.547 13.412 272.643 13.22C272.739 13.028 272.787 12.788 272.787 12.5L272.775 11.432C272.847 11.424 272.967 11.416 273.135 11.408C273.311 11.392 273.503 11.392 273.711 11.408C273.919 11.424 274.119 11.464 274.311 11.528C274.511 11.584 274.679 11.676 274.815 11.804C274.959 11.932 275.043 12.104 275.067 12.32C275.067 12.344 275.067 12.376 275.067 12.416C275.075 12.448 275.079 12.488 275.079 12.536H275.091C275.091 12.64 275.103 12.764 275.127 12.908C275.159 13.052 275.203 13.172 275.259 13.268C275.315 13.348 275.403 13.408 275.523 13.448C275.643 13.48 275.759 13.5 275.871 13.508C275.991 13.508 276.079 13.5 276.135 13.484C276.223 13.46 276.287 13.44 276.327 13.424C276.367 13.4 276.403 13.372 276.435 13.34ZM283.889 17.828C283.897 18.004 283.909 18.22 283.925 18.476C283.949 18.732 284.001 18.98 284.081 19.22C284.161 19.46 284.289 19.652 284.465 19.796C284.265 19.932 284.061 20.028 283.853 20.084C283.645 20.148 283.441 20.164 283.241 20.132C283.185 20.116 283.125 20.096 283.061 20.072C282.997 20.056 282.909 20.032 282.797 20C282.613 19.944 282.397 19.932 282.149 19.964C281.901 19.996 281.641 20.036 281.369 20.084C281.105 20.14 280.845 20.168 280.589 20.168C280.173 20.168 279.757 20.096 279.341 19.952C278.925 19.8 278.549 19.568 278.213 19.256C277.877 18.944 277.621 18.548 277.445 18.068C277.269 17.588 277.217 17.012 277.289 16.34C277.337 15.876 277.469 15.452 277.685 15.068C277.901 14.676 278.165 14.34 278.477 14.06C278.797 13.772 279.133 13.552 279.485 13.4C279.845 13.24 280.193 13.164 280.529 13.172C280.785 13.18 280.981 13.188 281.117 13.196C281.261 13.204 281.445 13.224 281.669 13.256C281.805 13.272 281.977 13.252 282.185 13.196C282.393 13.14 282.601 13.08 282.809 13.016C283.025 12.944 283.209 12.908 283.361 12.908C283.593 12.9 283.757 12.908 283.853 12.932C283.949 12.948 284.029 12.964 284.093 12.98C284.045 13.124 284.005 13.34 283.973 13.628C283.941 13.916 283.917 14.244 283.901 14.612C283.893 14.972 283.885 15.348 283.877 15.74C283.869 16.132 283.865 16.508 283.865 16.868C283.873 17.228 283.881 17.548 283.889 17.828ZM279.377 16.724C279.393 17.124 279.465 17.436 279.593 17.66C279.729 17.876 279.889 18.028 280.073 18.116C280.265 18.204 280.449 18.248 280.625 18.248C280.977 18.256 281.237 18.12 281.405 17.84C281.573 17.56 281.653 17.172 281.645 16.676C281.645 16.54 281.629 16.38 281.597 16.196C281.573 16.012 281.525 15.832 281.453 15.656C281.389 15.48 281.297 15.332 281.177 15.212C281.065 15.092 280.917 15.032 280.733 15.032C280.365 15.032 280.041 15.168 279.761 15.44C279.489 15.712 279.361 16.14 279.377 16.724Z" fill="url(#paint0_linear_2952_1380)"/>
<defs>
<linearGradient id="paint0_linear_2952_1380" x1="284.063" y1="5.46875" x2="259.018" y2="27.0979" gradientUnits="userSpaceOnUse">
<stop stop-color="#FED25B"/>
<stop offset="0.5" stop-color="#F3AEF5"/>
<stop offset="1" stop-color="#92E7FF"/>
</linearGradient>
</defs>
</svg>
