<svg width="128" height="128" viewBox="0 0 128 128" fill="none" xmlns="http://www.w3.org/2000/svg">
<g clip-path="url(#clip0_2914_1377)">
<path d="M128 64C128 28.6538 99.3462 0 64 0C28.6538 0 0 28.6538 0 64C0 99.3462 28.6538 128 64 128C99.3462 128 128 99.3462 128 64Z" fill="url(#paint0_radial_2914_1377)"/>
<path d="M94.3002 50.66V47.37C94.2949 44.2792 93.0648 41.3165 90.8792 39.1309C88.6937 36.9454 85.731 35.7153 82.6402 35.71H71.7002C71.5171 34.4049 70.869 33.2098 69.875 32.3444C68.8811 31.479 67.6081 31.0016 66.2902 31H66.0902V25.79C67.167 25.3181 68.0486 24.4901 68.5869 23.445C69.1252 22.3998 69.2875 21.2013 69.0464 20.0507C68.8054 18.9 68.1757 17.8674 67.2632 17.1262C66.3506 16.385 65.2108 15.9805 64.0352 15.9805C62.8596 15.9805 61.7198 16.385 60.8073 17.1262C59.8947 17.8674 59.2651 18.9 59.024 20.0507C58.783 21.2013 58.9452 22.3998 59.4835 23.445C60.0219 24.4901 60.9035 25.3181 61.9802 25.79V31H61.7402C60.4265 31.0013 59.1573 31.4762 58.1654 32.3377C57.1735 33.1991 56.5255 34.3893 56.3402 35.69H45.3402C42.2556 35.7085 39.3037 36.9475 37.13 39.1362C34.9563 41.3249 33.7375 44.2852 33.7402 47.37V50.66C31.871 50.8133 30.1279 51.6641 28.8571 53.0434C27.5863 54.4227 26.8809 56.2295 26.8809 58.105C26.8809 59.9804 27.5863 61.7873 28.8571 63.1666C30.1279 64.5458 31.871 65.3967 33.7402 65.55V68.84C33.7429 71.9298 34.9708 74.8926 37.1547 77.0784C39.3387 79.2642 42.3003 80.4947 45.3902 80.5H54.8102V84.44H42.4002C41.2618 84.4386 40.1342 84.6621 39.0823 85.0974C38.0304 85.5328 37.0747 86.1715 36.2702 86.977C35.4656 87.7825 34.828 88.7389 34.3939 89.7913C33.9597 90.8437 33.7376 91.9715 33.7402 93.11V103.33C33.7429 105.627 34.6558 107.829 36.279 109.454C37.9022 111.079 40.1033 111.995 42.4002 112H85.6002C87.8955 111.989 90.0936 111.072 91.7157 109.448C93.3377 107.824 94.2523 105.625 94.2602 103.33V93.11C94.2523 90.8147 93.3377 88.6155 91.7157 86.9916C90.0936 85.3676 87.8955 84.4505 85.6002 84.44H73.1902V80.5H82.6102C85.7001 80.4947 88.6618 79.2642 90.8457 77.0784C93.0296 74.8926 94.2576 71.9298 94.2602 68.84V65.55C96.1294 65.3967 97.8725 64.5458 99.1433 63.1666C100.414 61.7873 101.12 59.9804 101.12 58.105C101.12 56.2295 100.414 54.4227 99.1433 53.0434C97.8725 51.6641 96.1294 50.8133 94.2602 50.66H94.3002Z" fill="black"/>
<path d="M33.7695 64C32.3049 63.8647 30.9436 63.1873 29.9526 62.1005C28.9615 61.0137 28.4121 59.5958 28.4121 58.125C28.4121 56.6542 28.9615 55.2363 29.9526 54.1495C30.9436 53.0627 32.3049 52.3853 33.7695 52.25V64Z" fill="#453F3D"/>
<path d="M60.4799 21.1C60.4799 20.1585 60.8539 19.2556 61.5196 18.5898C62.1854 17.9241 63.0883 17.55 64.0299 17.55C64.9714 17.55 65.8743 17.9241 66.5401 18.5898C67.2059 19.2556 67.5799 20.1585 67.5799 21.1C67.5764 21.6664 67.4397 22.2241 67.1809 22.7278C66.9221 23.2316 66.5483 23.6674 66.0899 24C65.8483 24.1666 65.5861 24.301 65.3099 24.4C65.0609 24.5061 64.7984 24.5768 64.5299 24.6101C64.3599 24.6101 64.2199 24.6101 64.0499 24.6101C63.8936 24.6263 63.7361 24.6263 63.5799 24.6101C63.3079 24.5781 63.0418 24.5074 62.7899 24.4C62.5102 24.3018 62.2446 24.1673 61.9999 24C61.5249 23.6817 61.137 23.2496 60.8715 22.7431C60.606 22.2366 60.4714 21.6718 60.4799 21.1Z" fill="#E7D200"/>
<path d="M64.5303 26.1899V30.9999H63.5303V26.1899C63.6897 26.2092 63.8509 26.2092 64.0103 26.1899C64.1829 26.2118 64.3576 26.2118 64.5303 26.1899Z" fill="#B2B3B5"/>
<path d="M61.7404 32.58H66.2904C67.1925 32.5817 68.0665 32.8938 68.7657 33.4637C69.4649 34.0336 69.9468 34.8268 70.1304 35.71H57.9004C58.0805 34.8251 58.5614 34.0298 59.2614 33.4592C59.9614 32.8887 60.8373 32.578 61.7404 32.58Z" fill="#453F3D"/>
<path d="M85.6298 86C87.513 86.0053 89.3173 86.7564 90.648 88.0889C91.9786 89.4214 92.7272 91.2269 92.7299 93.11V103.33C92.7272 105.213 91.9786 107.019 90.648 108.351C89.3173 109.684 87.513 110.435 85.6298 110.44H42.4398C41.5066 110.44 40.5825 110.256 39.7205 109.899C38.8584 109.541 38.0753 109.017 37.4159 108.357C36.7564 107.697 36.2337 106.913 35.8774 106.05C35.5212 105.188 35.3385 104.263 35.3399 103.33V93.11C35.3425 91.2269 36.0911 89.4214 37.4217 88.0889C38.7524 86.7564 40.5567 86.0053 42.4398 86H85.6298Z" fill="#CC4E49"/>
<path d="M71.6904 80.5H56.4004V84.44H71.6904V80.5Z" fill="#B2B3B5"/>
<path d="M82.6398 37.24H45.3898C39.8173 37.24 35.2998 41.7574 35.2998 47.33V68.85C35.2998 74.4225 39.8173 78.94 45.3898 78.94H82.6398C88.2124 78.94 92.7298 74.4225 92.7298 68.85V47.33C92.7298 41.7574 88.2124 37.24 82.6398 37.24Z" fill="#CCDEDE"/>
<path d="M94.2998 64V52.23C95.788 52.3363 97.1807 53.0025 98.1974 54.0944C99.2141 55.1864 99.7794 56.623 99.7794 58.115C99.7794 59.607 99.2141 61.0436 98.1974 62.1355C97.1807 63.2275 95.788 63.8937 94.2998 64Z" fill="#453F3D"/>
<path d="M76.4496 46.4499H51.6096C48.5776 46.5388 45.6995 47.8056 43.5863 49.9817C41.4731 52.1577 40.291 55.0716 40.291 58.1049C40.291 61.1382 41.4731 64.0522 43.5863 66.2282C45.6995 68.4042 48.5776 69.6711 51.6096 69.7599H76.4496C78.0089 69.8056 79.5615 69.538 81.0154 68.9728C82.4694 68.4076 83.7952 67.5564 84.9143 66.4697C86.0334 65.3829 86.923 64.0826 87.5305 62.6458C88.138 61.209 88.451 59.6649 88.451 58.1049C88.451 56.545 88.138 55.0009 87.5305 53.5641C86.923 52.1273 86.0334 50.827 84.9143 49.7402C83.7952 48.6535 82.4694 47.8023 81.0154 47.2371C79.5615 46.6719 78.0089 46.4043 76.4496 46.4499Z" fill="black"/>
<path d="M76.4504 68.2H51.6104C48.988 68.1175 46.5007 67.0177 44.6749 65.1335C42.8491 63.2494 41.8281 60.7287 41.8281 58.105C41.8281 55.4813 42.8491 52.9606 44.6749 51.0765C46.5007 49.1923 48.988 48.0926 51.6104 48.01H76.4504C77.8028 47.9674 79.15 48.1971 80.4119 48.6852C81.6739 49.1734 82.8249 49.9101 83.7967 50.8518C84.7684 51.7934 85.541 52.9206 86.0686 54.1666C86.5962 55.4126 86.8681 56.7519 86.8681 58.105C86.8681 59.4581 86.5962 60.7974 86.0686 62.0434C85.541 63.2894 84.7684 64.4166 83.7967 65.3583C82.8249 66.2999 81.6739 67.0366 80.4119 67.5248C79.15 68.013 77.8028 68.2426 76.4504 68.2Z" fill="#342E2C"/>
<path d="M79.4397 88.79H48.6197C46.3726 88.8664 44.243 89.8127 42.6803 91.4294C41.1176 93.0461 40.2441 95.2066 40.2441 97.455C40.2441 99.7035 41.1176 101.864 42.6803 103.481C44.243 105.097 46.3726 106.044 48.6197 106.12H79.4397C80.6024 106.16 81.7611 105.965 82.8469 105.547C83.9327 105.129 84.9233 104.497 85.7598 103.689C86.5962 102.88 87.2614 101.912 87.7157 100.841C88.17 99.7698 88.4041 98.6184 88.4041 97.455C88.4041 96.2917 88.17 95.1402 87.7157 94.0693C87.2614 92.9983 86.5962 92.0297 85.7598 91.2212C84.9233 90.4127 83.9327 89.7808 82.8469 89.3631C81.7611 88.9454 80.6024 88.7505 79.4397 88.79Z" fill="black"/>
<path d="M79.4395 104.59H48.6195C46.7365 104.59 44.9306 103.842 43.5991 102.51C42.2676 101.179 41.5195 99.3731 41.5195 97.49C41.5195 95.607 42.2676 93.8011 43.5991 92.4696C44.9306 91.1381 46.7365 90.39 48.6195 90.39H79.4395C81.3226 90.39 83.1285 91.1381 84.46 92.4696C85.7915 93.8011 86.5395 95.607 86.5395 97.49C86.5395 99.3731 85.7915 101.179 84.46 102.51C83.1285 103.842 81.3226 104.59 79.4395 104.59Z" fill="#F1F1E8"/>
<path d="M64.25 104.59V105.34H65H79.4391C81.5211 105.34 83.5178 104.513 84.9899 103.041C86.4621 101.569 87.2891 99.572 87.2891 97.49C87.2891 95.4081 86.4621 93.4114 84.9899 91.9392C83.5178 90.4671 81.5211 89.64 79.4391 89.64H65H64.25V90.39V104.59Z" fill="#27E0BB" stroke="black" stroke-width="1.5"/>
<path d="M53.0704 63.24C55.9257 63.24 58.2404 60.9253 58.2404 58.07C58.2404 55.2147 55.9257 52.9 53.0704 52.9C50.2151 52.9 47.9004 55.2147 47.9004 58.07C47.9004 60.9253 50.2151 63.24 53.0704 63.24Z" fill="black"/>
<path opacity="0.8" d="M77.896 94H73.104C72.8112 94 72.5304 93.8946 72.3233 93.7071C72.1163 93.5196 72 93.2652 72 93C72 92.7348 72.1163 92.4804 72.3233 92.2929C72.5304 92.1054 72.8112 92 73.104 92H77.896C78.1888 92 78.4696 92.1054 78.6767 92.2929C78.8837 92.4804 79 92.7348 79 93C79 93.2652 78.8837 93.5196 78.6767 93.7071C78.4696 93.8946 78.1888 94 77.896 94Z" fill="white"/>
<path d="M53.0697 61.7C55.058 61.7 56.6697 60.0882 56.6697 58.1C56.6697 56.1118 55.058 54.5 53.0697 54.5C51.0815 54.5 49.4697 56.1118 49.4697 58.1C49.4697 60.0882 51.0815 61.7 53.0697 61.7Z" fill="#E4D200"/>
<path d="M75.5704 63.24C78.4257 63.24 80.7404 60.9253 80.7404 58.07C80.7404 55.2147 78.4257 52.9 75.5704 52.9C72.7151 52.9 70.4004 55.2147 70.4004 58.07C70.4004 60.9253 72.7151 63.24 75.5704 63.24Z" fill="black"/>
<path d="M75.5697 61.7C77.558 61.7 79.1697 60.0882 79.1697 58.1C79.1697 56.1118 77.558 54.5 75.5697 54.5C73.5815 54.5 71.9697 56.1118 71.9697 58.1C71.9697 60.0882 73.5815 61.7 75.5697 61.7Z" fill="#E4D200"/>
</g>
<defs>
<radialGradient id="paint0_radial_2914_1377" cx="0" cy="0" r="1" gradientUnits="userSpaceOnUse" gradientTransform="translate(64 64) scale(64)">
<stop stop-color="#8D10C6"/>
<stop offset="0.28" stop-color="#8C12C7"/>
<stop offset="0.42" stop-color="#871AC8"/>
<stop offset="0.53" stop-color="#7F27CC"/>
<stop offset="0.62" stop-color="#743AD0"/>
<stop offset="0.7" stop-color="#6652D6"/>
<stop offset="0.78" stop-color="#5470DD"/>
<stop offset="0.85" stop-color="#3F94E6"/>
<stop offset="0.92" stop-color="#26BEEF"/>
<stop offset="0.98" stop-color="#0CEBFA"/>
<stop offset="1" stop-color="#00FFFF"/>
</radialGradient>
<clipPath id="clip0_2914_1377">
<rect width="128" height="128" fill="white"/>
</clipPath>
</defs>
</svg>
