<svg width="606" height="147" viewBox="0 0 606 147" fill="none" xmlns="http://www.w3.org/2000/svg">
<path d="M59.1 84.3C58.8333 84.3667 58.4333 84.7333 57.9 85.4C57.4333 86.0667 57.1 86.7667 56.9 87.5C56.5667 88.5667 56.6667 89.4333 57.2 90.1C58.6 91.7667 60.4 93.7333 62.6 96C64.8 98.2 67 100.3 69.2 102.3C71.4667 104.3 73.4 105.833 75 106.9C73.8 110.1 71.9 112.667 69.3 114.6C66.7667 116.467 63.9333 117.367 60.8 117.3C57.6667 117.233 54.6 115.833 51.6 113.1C51.2 112.7 50.4333 111.833 49.3 110.5C48.1667 109.1 46.8667 107.467 45.4 105.6C43.9333 103.733 42.4667 101.867 41 100C39.5333 98.1333 38.2667 96.5 37.2 95.1C36.1333 93.7 35.4667 92.8333 35.2 92.5C33.9333 90.8333 32.7333 90.4667 31.6 91.4C30.4667 92.3333 29.7667 94.2667 29.5 97.2C29.3667 98.9333 29.3667 100.933 29.5 103.2C29.7 105.4 29.9667 107.367 30.3 109.1C30.7 110.833 31.1 111.867 31.5 112.2C30.1 113.267 28.3667 114.267 26.3 115.2C24.2333 116.133 21.8667 116.7 19.2 116.9C18.2 116.967 17.0333 116.7 15.7 116.1C14.3667 115.5 13.2 114.533 12.2 113.2C11.2667 111.8 10.7667 110.067 10.7 108C10.7 107.467 10.6667 106.067 10.6 103.8C10.6 101.533 10.5667 98.7667 10.5 95.5C10.5 92.1667 10.5 88.7333 10.5 85.2C10.5 81.6667 10.4667 78.3333 10.4 75.2C10.4 72.0667 10.4 69.5333 10.4 67.6C10.4 65.6667 10.4 64.7 10.4 64.7C10.4 60.7667 10.3 57.5 10.1 54.9C9.9 52.2333 9.1 50.2 7.7 48.8C6.43333 47.5333 5.46667 45.7 4.8 43.3C4.2 40.9 3.93333 38.6333 4 36.5C4.26667 36.5667 5.06667 36.6667 6.4 36.8C7.73333 36.8667 9.03333 36.9667 10.3 37.1C11.1667 37.1 12.4 37.1 14 37.1C15.6667 37.0333 17.4333 36.9667 19.3 36.9C21.1667 36.8333 22.9 36.8 24.5 36.8C26.1 36.7333 27.3 36.6667 28.1 36.6C28.7 36.6 29.8 36.6 31.4 36.6C33.0667 36.5333 35 36.5 37.2 36.5C39.4 36.5 41.6333 36.5333 43.9 36.6C46.1667 36.6 48.2667 36.6667 50.2 36.8C52.1333 36.9333 53.6333 37.1 54.7 37.3C59.1 38.1 62.5 39.5667 64.9 41.7C67.3 43.8333 69 46.4 70 49.4C71.0667 52.4 71.7 55.6667 71.9 59.2C72.0333 62.2 71.7 65.3333 70.9 68.6C70.1 71.8667 68.7333 74.9 66.8 77.7C64.8667 80.5 62.3 82.7 59.1 84.3ZM29.7 62.8C29.7 64.9333 30.2 66.5333 31.2 67.6C32.2 68.6 33.1333 69.2 34 69.4C35.2 69.6667 36.7333 69.7 38.6 69.5C40.4667 69.2333 42.3333 68.7667 44.2 68.1C46.0667 67.3667 47.6333 66.4333 48.9 65.3C50.2333 64.1667 50.9 62.8667 50.9 61.4C50.9 59.4667 50.1 58 48.5 57C46.9 55.9333 44.8667 55.2667 42.4 55C40 54.7333 37.6 54.8 35.2 55.2C33.3333 55.4667 31.9333 56.3 31 57.7C30.0667 59.1 29.6333 60.8 29.7 62.8ZM134.4 85.5C135 91.1 134.567 95.9 133.1 99.9C131.633 103.9 129.467 107.2 126.6 109.8C123.8 112.4 120.633 114.333 117.1 115.6C113.633 116.8 110.167 117.4 106.7 117.4C103.3 117.4 99.8333 116.8 96.3 115.6C92.8333 114.333 89.7 112.4 86.9 109.8C84.1667 107.2 82.0333 103.9 80.5 99.9C79.0333 95.9 78.6 91.1 79.2 85.5C79.8 80.3667 81.3333 75.8667 83.8 72C86.3333 68.1333 89.5333 65.1 93.4 62.9C97.3333 60.6333 101.633 59.3667 106.3 59.1C106.567 59.0333 106.833 58.8333 107.1 58.5C107.433 58.1 107.967 57.7667 108.7 57.5C109.5 57.1667 110.7 57.0667 112.3 57.2C116.1 58.2667 119.567 60.1 122.7 62.7C125.833 65.3 128.433 68.5333 130.5 72.4C132.633 76.2667 133.933 80.6333 134.4 85.5ZM105.8 101.4C107.933 101.4 109.767 100.9 111.3 99.9C112.833 98.9 114.067 97.6333 115 96.1C115.933 94.5 116.6 92.8333 117 91.1C117.467 89.3667 117.7 87.8 117.7 86.4C117.7 83.5333 117.233 81.3 116.3 79.7C115.367 78.1 113.233 76.6667 109.9 75.4C108.967 75 108.333 74.4667 108 73.8C107.667 73.1333 107.167 72.7667 106.5 72.7C104.3 72.4333 102.433 73.0333 100.9 74.5C99.3667 75.9667 98.2 77.9333 97.4 80.4C96.6 82.8667 96.2 85.5333 96.2 88.4C96.2 91.2667 96.7333 93.6667 97.8 95.6C98.9333 97.5333 100.233 99 101.7 100C103.233 100.933 104.6 101.4 105.8 101.4ZM197.874 85.5C198.474 91.1 198.041 95.9 196.574 99.9C195.108 103.9 192.974 107.2 190.174 109.8C187.374 112.4 184.241 114.333 180.774 115.6C177.308 116.8 173.841 117.4 170.374 117.4C168.774 117.4 166.808 117.233 164.474 116.9C162.208 116.567 160.141 116.7 158.274 117.3C157.674 117.5 157.108 117.667 156.574 117.8C156.041 117.933 155.341 117.967 154.474 117.9C153.674 117.833 152.641 117.467 151.374 116.8C150.108 116.133 148.908 115.167 147.774 113.9C146.641 112.567 145.841 111 145.374 109.2C144.841 107.2 144.374 104.467 143.974 101C143.641 97.4667 143.374 93.5333 143.174 89.2C142.974 84.8667 142.841 80.4 142.774 75.8C142.708 71.1333 142.641 66.6 142.574 62.2C142.574 57.7333 142.574 53.7 142.574 50.1C142.641 46.5 142.674 43.5667 142.674 41.3C142.674 38.9667 142.641 37.6 142.574 37.2C143.574 37 145.041 36.9667 146.974 37.1C148.974 37.1667 151.041 37.5 153.174 38.1C155.308 38.6333 157.208 39.5667 158.874 40.9C160.541 42.1667 161.574 43.9333 161.974 46.2C162.308 48.4 162.574 50.5333 162.774 52.6C163.041 54.6 163.908 56.0667 165.374 57C165.908 57.3333 166.641 57.6 167.574 57.8C168.574 57.9333 169.608 58.0333 170.674 58.1C175.541 58.1667 179.908 59.4333 183.774 61.9C187.708 64.3 190.908 67.5667 193.374 71.7C195.841 75.7667 197.341 80.3667 197.874 85.5ZM171.474 102.3C173.808 102.233 175.674 101.567 177.074 100.3C178.541 98.9667 179.608 97.3 180.274 95.3C180.941 93.3 181.274 91.2667 181.274 89.2C181.274 87.0667 181.041 84.9333 180.574 82.8C180.108 80.6 179.208 78.7667 177.874 77.3C176.608 75.7667 174.774 75 172.374 75C170.441 75 168.774 75.7 167.374 77.1C165.974 78.4333 164.908 80.1333 164.174 82.2C163.441 84.2 163.041 86.1667 162.974 88.1C162.908 89.9667 163.174 92.0333 163.774 94.3C164.374 96.5 165.308 98.4 166.574 100C167.908 101.533 169.541 102.3 171.474 102.3ZM261.451 85.5C262.051 91.1 261.617 95.9 260.151 99.9C258.684 103.9 256.517 107.2 253.651 109.8C250.851 112.4 247.684 114.333 244.151 115.6C240.684 116.8 237.217 117.4 233.751 117.4C230.351 117.4 226.884 116.8 223.351 115.6C219.884 114.333 216.751 112.4 213.951 109.8C211.217 107.2 209.084 103.9 207.551 99.9C206.084 95.9 205.651 91.1 206.251 85.5C206.851 80.3667 208.384 75.8667 210.851 72C213.384 68.1333 216.584 65.1 220.451 62.9C224.384 60.6333 228.684 59.3667 233.351 59.1C233.617 59.0333 233.884 58.8333 234.151 58.5C234.484 58.1 235.017 57.7667 235.751 57.5C236.551 57.1667 237.751 57.0667 239.351 57.2C243.151 58.2667 246.617 60.1 249.751 62.7C252.884 65.3 255.484 68.5333 257.551 72.4C259.684 76.2667 260.984 80.6333 261.451 85.5ZM232.851 101.4C234.984 101.4 236.817 100.9 238.351 99.9C239.884 98.9 241.117 97.6333 242.051 96.1C242.984 94.5 243.651 92.8333 244.051 91.1C244.517 89.3667 244.751 87.8 244.751 86.4C244.751 83.5333 244.284 81.3 243.351 79.7C242.417 78.1 240.284 76.6667 236.951 75.4C236.017 75 235.384 74.4667 235.051 73.8C234.717 73.1333 234.217 72.7667 233.551 72.7C231.351 72.4333 229.484 73.0333 227.951 74.5C226.417 75.9667 225.251 77.9333 224.451 80.4C223.651 82.8667 223.251 85.5333 223.251 88.4C223.251 91.2667 223.784 93.6667 224.851 95.6C225.984 97.5333 227.284 99 228.751 100C230.284 100.933 231.651 101.4 232.851 101.4ZM312.125 60.5C312.792 61.1667 313.292 62.4 313.625 64.2C314.025 65.9333 314.125 67.8667 313.925 70C313.792 72.0667 313.292 73.9667 312.425 75.7C311.625 77.3667 310.392 78.5 308.725 79.1C306.125 80.0333 304.225 81.7 303.025 84.1C301.825 86.5 301.125 89.5333 300.925 93.2V101.7C301.058 102.767 301.492 103.633 302.225 104.3C303.025 104.967 303.792 105.433 304.525 105.7C305.325 105.967 305.725 106.1 305.725 106.1C305.725 106.1 305.592 106.567 305.325 107.5C305.125 108.433 304.725 109.533 304.125 110.8C303.525 112.067 302.658 113.3 301.525 114.5C300.392 115.633 298.925 116.433 297.125 116.9C296.192 117.1 294.925 117.133 293.325 117C291.792 116.933 290.225 116.633 288.625 116.1C287.025 115.567 285.692 114.833 284.625 113.9C284.025 113.367 283.525 112.8 283.125 112.2C282.725 111.6 282.425 110.7 282.225 109.5C282.092 108.3 282.025 106.6 282.025 104.4V93.7C281.958 89.8333 281.125 86.6333 279.525 84.1C277.925 81.5 275.825 79.2667 273.225 77.4C272.025 76.5333 271.158 75.1333 270.625 73.2C270.158 71.2 269.858 69.1 269.725 66.9C269.592 64.7 269.558 62.8333 269.625 61.3C269.958 61.3667 270.858 61.5 272.325 61.7C273.792 61.9 275.058 62 276.125 62C278.258 61.9333 279.725 61.1 280.525 59.5C281.325 57.9 281.725 55.9 281.725 53.5L281.625 44.6C282.225 44.5333 283.225 44.4667 284.625 44.4C286.092 44.2667 287.692 44.2667 289.425 44.4C291.158 44.5333 292.825 44.8667 294.425 45.4C296.092 45.8667 297.492 46.6333 298.625 47.7C299.825 48.7667 300.525 50.2 300.725 52C300.725 52.2 300.725 52.4667 300.725 52.8C300.792 53.0667 300.825 53.4 300.825 53.8H300.925C300.925 54.6667 301.025 55.7 301.225 56.9C301.492 58.1 301.858 59.1 302.325 59.9C302.792 60.5667 303.525 61.0667 304.525 61.4C305.525 61.6667 306.492 61.8333 307.425 61.9C308.425 61.9 309.158 61.8333 309.625 61.7C310.358 61.5 310.892 61.3333 311.225 61.2C311.558 61 311.858 60.7667 312.125 60.5ZM369.366 36.5C374.3 37.2333 378.2 38.5667 381.066 40.5C384 42.3667 386.166 44.5333 387.566 47C388.966 49.4667 389.866 51.9 390.266 54.3C390.666 56.6333 390.866 58.6333 390.866 60.3C390.866 62.4333 390.5 64.9 389.766 67.7C389.033 70.4333 387.8 73.1333 386.066 75.8C384.4 78.4 382.166 80.6667 379.366 82.6C376.566 84.4667 373.066 85.6 368.866 86C368.133 86.0667 367.2 86.1333 366.066 86.2C364.933 86.2667 363.9 86.3333 362.966 86.4C362.1 86.4 361.566 86.4 361.366 86.4C358.833 86.5333 356.5 87.2667 354.366 88.6C352.3 89.9333 350.633 91.6667 349.366 93.8C348.166 95.8667 347.533 98.2 347.466 100.8V104.5C347.466 106.233 347.7 107.833 348.166 109.3C348.633 110.7 349 111.667 349.266 112.2C347.666 113.667 346.266 114.7 345.066 115.3C343.866 115.9 342.366 116.333 340.566 116.6C339.1 116.8 337.466 116.667 335.666 116.2C333.933 115.733 332.366 114.867 330.966 113.6C329.566 112.267 328.666 110.433 328.266 108.1C328.2 107.7 328.166 106.433 328.166 104.3C328.166 102.1 328.166 99.4 328.166 96.2C328.233 92.9333 328.266 89.3667 328.266 85.5C328.333 81.6333 328.366 77.7667 328.366 73.9C328.366 70.0333 328.366 66.4333 328.366 63.1C328.3 59.5 328.133 56.4667 327.866 54C327.666 51.5333 327.166 49.9667 326.366 49.3C324.966 48.1 323.866 46.2333 323.066 43.7C322.333 41.1667 322 38.7667 322.066 36.5C322.333 36.5667 323.066 36.6667 324.266 36.8C325.466 36.8667 326.733 36.9667 328.066 37.1C328.733 37.1 329.833 37.1 331.366 37.1C332.9 37.0333 334.566 36.9333 336.366 36.8C338.233 36.6667 340.033 36.5667 341.766 36.5C343.5 36.3667 344.9 36.2667 345.966 36.2C347.433 36.0667 349.366 35.9333 351.766 35.8C354.233 35.6667 357 35.6333 360.066 35.7C363.133 35.7667 366.233 36.0333 369.366 36.5ZM357.466 67.7C358.4 67.7667 359.566 67.7 360.966 67.5C362.433 67.2333 363.9 66.8333 365.366 66.3C366.9 65.7667 368.166 65.0333 369.166 64.1C370.166 63.1 370.666 61.9 370.666 60.5C370.666 58.5667 369.933 57.0667 368.466 56C367.066 54.9333 365.333 54.2 363.266 53.8C361.266 53.4 359.333 53.2333 357.466 53.3C354.733 53.3667 352.4 54.1333 350.466 55.6C348.533 57 347.566 58.6667 347.566 60.6C347.633 61.8667 348.133 63.0333 349.066 64.1C350.066 65.1 351.3 65.9333 352.766 66.6C354.3 67.2667 355.866 67.6333 357.466 67.7ZM450.224 103.3C450.224 103.9 450.324 104.8 450.524 106C450.724 107.2 450.991 108.433 451.324 109.7C451.724 110.967 452.124 112.1 452.524 113.1C452.924 114.033 453.324 114.6 453.724 114.8C452.791 115.933 451.291 116.833 449.224 117.5C447.158 118.233 445.091 118.367 443.024 117.9C441.424 117.433 439.991 117 438.724 116.6C437.458 116.2 435.724 116.033 433.524 116.1C431.924 116.167 430.324 116.333 428.724 116.6C427.191 116.867 425.624 117.167 424.024 117.5C423.224 117.633 421.824 117.667 419.824 117.6C417.891 117.6 415.758 117.367 413.424 116.9C411.158 116.433 409.058 115.633 407.124 114.5C404.591 112.967 402.691 110.733 401.424 107.8C400.158 104.867 399.424 101.867 399.224 98.8C399.224 98.0667 399.191 96.6333 399.124 94.5C399.124 92.3667 399.091 89.8333 399.024 86.9C399.024 83.9667 398.991 80.9333 398.924 77.8C398.924 74.6667 398.891 71.7667 398.824 69.1C398.824 66.3667 398.824 64.1667 398.824 62.5C398.824 60.7667 398.824 59.9 398.824 59.9C399.424 59.8333 400.424 59.7667 401.824 59.7C403.291 59.5667 404.891 59.5667 406.624 59.7C408.358 59.8333 410.024 60.1667 411.624 60.7C413.291 61.1667 414.691 61.9333 415.824 63C417.024 64.0667 417.724 65.5 417.924 67.3C418.058 68.7667 418.158 70.1 418.224 71.3C418.291 72.5 418.324 73.8333 418.324 75.3C418.324 76.7 418.258 78.4667 418.124 80.6C418.058 82.6667 417.958 85.3 417.824 88.5C417.691 91.1 417.624 93.3333 417.624 95.2C417.691 97.0667 418.158 98.4667 419.024 99.4C419.891 100.333 421.424 100.733 423.624 100.6C425.091 100.533 426.291 99.9667 427.224 98.9C428.224 97.7667 429.024 96.4 429.624 94.8C430.224 93.2 430.624 91.5667 430.824 89.9C431.091 88.2333 431.224 86.7667 431.224 85.5C431.224 85.2333 431.191 84.2 431.124 82.4C431.124 80.6 431.091 78.4667 431.024 76C431.024 73.4667 430.991 70.9667 430.924 68.5C430.924 66.0333 430.924 64 430.924 62.4C430.924 60.7333 430.924 59.9 430.924 59.9C431.524 59.8333 432.524 59.8333 433.924 59.9C435.324 59.9 436.891 60.0333 438.624 60.3C440.358 60.5667 442.058 61.0333 443.724 61.7C445.391 62.3667 446.791 63.3 447.924 64.5C449.124 65.6333 449.824 67.1 450.024 68.9C450.424 72.7667 450.491 77.5 450.224 83.1C450.024 88.6333 450.024 95.3667 450.224 103.3ZM534.415 103.3C534.482 104.1 534.682 105.1 535.015 106.3C535.415 107.433 535.782 108.467 536.115 109.4C536.515 110.333 536.715 110.8 536.715 110.8C536.382 111.2 535.682 111.933 534.615 113C533.548 114.067 532.182 115.033 530.515 115.9C528.915 116.7 527.082 116.933 525.015 116.6C521.348 115.933 518.848 114.4 517.515 112C516.248 109.6 515.582 106.867 515.515 103.8C515.515 103.267 515.548 102.233 515.615 100.7C515.682 99.1667 515.715 97.4667 515.715 95.6C515.782 93.6667 515.782 91.8667 515.715 90.2C515.715 88.4667 515.582 87.2 515.315 86.4C514.915 84.8667 514.315 83.9333 513.515 83.6C512.715 83.2667 511.882 83.3333 511.015 83.8C510.148 84.2 509.415 84.8667 508.815 85.8C508.215 86.7333 507.915 87.7333 507.915 88.8C507.848 90.4667 507.815 91.9 507.815 93.1C507.815 94.3 507.848 95.8667 507.915 97.8C507.915 98.2667 507.982 99.1333 508.115 100.4C508.248 101.667 508.415 103.1 508.615 104.7C508.815 106.3 509.015 107.867 509.215 109.4C509.482 110.867 509.748 112.067 510.015 113C508.348 114.2 506.382 115.2 504.115 116C501.915 116.8 499.082 116.8 495.615 116C493.815 115.6 492.482 114.767 491.615 113.5C490.748 112.233 490.148 110.767 489.815 109.1C489.548 107.367 489.415 105.6 489.415 103.8C489.415 102 489.415 100.333 489.415 98.8C489.415 98.0667 489.448 96.9 489.515 95.3C489.648 93.7 489.715 92.0333 489.715 90.3C489.715 88.5 489.548 87.0667 489.215 86C488.948 85.1333 488.515 84.6 487.915 84.4C487.382 84.1333 486.915 84.0333 486.515 84.1C485.448 84.1667 484.515 84.4667 483.715 85C482.982 85.5333 482.482 86.6333 482.215 88.3C482.082 89.1 481.982 90.4333 481.915 92.3C481.915 94.1 481.915 96.0333 481.915 98.1C481.915 100.1 481.915 101.867 481.915 103.4C481.982 104.933 482.048 105.833 482.115 106.1C482.315 107.033 482.715 107.733 483.315 108.2C483.915 108.6 484.215 108.8 484.215 108.8C484.215 108.8 483.848 109.233 483.115 110.1C482.448 110.9 481.515 111.833 480.315 112.9C479.115 113.967 477.715 114.9 476.115 115.7C474.515 116.433 472.782 116.7 470.915 116.5C469.115 116.367 467.415 115.433 465.815 113.7C464.282 111.967 463.482 109.567 463.415 106.5L463.115 68.1C463.048 65.7 462.782 63.7333 462.315 62.2C461.915 60.6667 461.715 59.9 461.715 59.9C462.382 59.7667 463.582 59.6667 465.315 59.6C467.048 59.5333 468.982 59.6 471.115 59.8C473.248 59.9333 475.182 60.4 476.915 61.2C477.982 61.6667 479.182 61.8667 480.515 61.8C481.915 61.6667 483.115 61.3 484.115 60.7C485.248 60.1 486.382 59.5667 487.515 59.1C488.715 58.6333 489.915 58.3333 491.115 58.2C492.515 58.0667 494.215 58.2 496.215 58.6C498.215 59 500.282 59.7333 502.415 60.8C503.748 61.4667 505.315 61.9333 507.115 62.2C508.915 62.4667 510.148 62.3667 510.815 61.9C512.148 60.9667 513.548 60.1667 515.015 59.5C516.548 58.8333 518.082 58.4 519.615 58.2C520.748 58.0667 522.082 58.1333 523.615 58.4C525.215 58.6 526.748 59.1 528.215 59.9C529.748 60.7 531.048 61.8333 532.115 63.3C533.248 64.7667 533.948 66.6333 534.215 68.9C534.415 70.8333 534.515 73.3667 534.515 76.5C534.582 79.5667 534.582 82.8333 534.515 86.3C534.448 89.7 534.382 92.9333 534.315 96C534.315 99 534.348 101.433 534.415 103.3ZM573.876 58.2C579.809 57.7333 584.809 58.7333 588.876 61.2C592.942 63.6 596.042 66.9667 598.176 71.3C600.309 75.5667 601.409 80.3 601.476 85.5C601.609 90.3 600.909 94.5667 599.376 98.3C597.842 101.967 595.742 105.1 593.076 107.7C590.409 110.233 587.409 112.167 584.076 113.5C580.809 114.833 577.442 115.5 573.976 115.5C573.242 115.5 572.276 115.6 571.076 115.8C569.942 115.933 569.009 116.3 568.276 116.9C567.809 117.367 567.476 117.867 567.276 118.4C567.142 118.933 567.109 119.567 567.176 120.3C567.309 121.5 567.576 122.333 567.976 122.8C568.442 123.333 568.842 123.9 569.176 124.5C568.442 125.3 567.409 126.167 566.076 127.1C564.742 128.033 563.109 128.767 561.176 129.3C559.309 129.833 557.076 129.9 554.476 129.5C552.876 129.233 551.476 128.2 550.276 126.4C549.076 124.6 548.442 122.167 548.376 119.1L548.076 72.6C548.076 68.8667 547.842 65.8333 547.376 63.5C546.909 61.1 546.676 59.9 546.676 59.9C547.542 59.6333 548.909 59.4 550.776 59.2C552.709 59 554.709 59.1333 556.776 59.6C557.576 59.8 558.576 60.0333 559.776 60.3C561.042 60.5 562.409 60.5 563.876 60.3C565.809 60.1 567.742 59.7333 569.676 59.2C571.609 58.6 573.009 58.2667 573.876 58.2ZM575.776 99.8C577.909 99.8 579.909 98.7 581.776 96.5C583.642 94.2333 584.576 91.0667 584.576 87C584.576 84.2667 584.109 81.9667 583.176 80.1C582.309 78.1667 581.209 76.7333 579.876 75.8C578.542 74.8 577.242 74.3 575.976 74.3C574.709 74.3 573.409 74.4 572.076 74.6C570.809 74.8 569.676 75.5667 568.676 76.9C567.742 78.2333 567.142 80.6 566.876 84C566.542 88.4 566.809 91.7333 567.676 94C568.609 96.2667 569.842 97.8 571.376 98.6C572.909 99.4 574.376 99.8 575.776 99.8Z" fill="url(#paint0_linear_2933_1379)"/>
<defs>
<linearGradient id="paint0_linear_2933_1379" x1="587.063" y1="-4.59374" x2="412.861" y2="346.851" gradientUnits="userSpaceOnUse">
<stop stop-color="#FED25B"/>
<stop offset="0.5" stop-color="#F3AEF5"/>
<stop offset="1" stop-color="#92E7FF"/>
</linearGradient>
</defs>
</svg>
