<svg width="244" height="52" viewBox="0 0 244 52" fill="none" xmlns="http://www.w3.org/2000/svg">
<path d="M23.64 33.32C23.5333 33.3467 23.3733 33.4933 23.16 33.76C22.9733 34.0267 22.84 34.3067 22.76 34.6C22.6267 35.0267 22.6667 35.3733 22.88 35.64C23.44 36.3067 24.16 37.0933 25.04 38C25.92 38.88 26.8 39.72 27.68 40.52C28.5867 41.32 29.36 41.9333 30 42.36C29.52 43.64 28.76 44.6667 27.72 45.44C26.7067 46.1867 25.5733 46.5467 24.32 46.52C23.0667 46.4933 21.84 45.9333 20.64 44.84C20.48 44.68 20.1733 44.3333 19.72 43.8C19.2667 43.24 18.7467 42.5867 18.16 41.84C17.5733 41.0933 16.9867 40.3467 16.4 39.6C15.8133 38.8533 15.3067 38.2 14.88 37.64C14.4533 37.08 14.1867 36.7333 14.08 36.6C13.5733 35.9333 13.0933 35.7867 12.64 36.16C12.1867 36.5333 11.9067 37.3067 11.8 38.48C11.7467 39.1733 11.7467 39.9733 11.8 40.88C11.88 41.76 11.9867 42.5467 12.12 43.24C12.28 43.9333 12.44 44.3467 12.6 44.48C12.04 44.9067 11.3467 45.3067 10.52 45.68C9.69333 46.0533 8.74667 46.28 7.68 46.36C7.28 46.3867 6.81333 46.28 6.28 46.04C5.74667 45.8 5.28 45.4133 4.88 44.88C4.50667 44.32 4.30667 43.6267 4.28 42.8C4.28 42.5867 4.26667 42.0267 4.24 41.12C4.24 40.2133 4.22667 39.1067 4.2 37.8C4.2 36.4667 4.2 35.0933 4.2 33.68C4.2 32.2667 4.18667 30.9333 4.16 29.68C4.16 28.4267 4.16 27.4133 4.16 26.64C4.16 25.8667 4.16 25.48 4.16 25.48C4.16 23.9067 4.12 22.6 4.04 21.56C3.96 20.4933 3.64 19.68 3.08 19.12C2.57333 18.6133 2.18667 17.88 1.92 16.92C1.68 15.96 1.57333 15.0533 1.6 14.2C1.70667 14.2267 2.02667 14.2667 2.56 14.32C3.09333 14.3467 3.61333 14.3867 4.12 14.44C4.46667 14.44 4.96 14.44 5.6 14.44C6.26667 14.4133 6.97333 14.3867 7.72 14.36C8.46667 14.3333 9.16 14.32 9.8 14.32C10.44 14.2933 10.92 14.2667 11.24 14.24C11.48 14.24 11.92 14.24 12.56 14.24C13.2267 14.2133 14 14.2 14.88 14.2C15.76 14.2 16.6533 14.2133 17.56 14.24C18.4667 14.24 19.3067 14.2667 20.08 14.32C20.8533 14.3733 21.4533 14.44 21.88 14.52C23.64 14.84 25 15.4267 25.96 16.28C26.92 17.1333 27.6 18.16 28 19.36C28.4267 20.56 28.68 21.8667 28.76 23.28C28.8133 24.48 28.68 25.7333 28.36 27.04C28.04 28.3467 27.4933 29.56 26.72 30.68C25.9467 31.8 24.92 32.68 23.64 33.32ZM11.88 24.72C11.88 25.5733 12.08 26.2133 12.48 26.64C12.88 27.04 13.2533 27.28 13.6 27.36C14.08 27.4667 14.6933 27.48 15.44 27.4C16.1867 27.2933 16.9333 27.1067 17.68 26.84C18.4267 26.5467 19.0533 26.1733 19.56 25.72C20.0933 25.2667 20.36 24.7467 20.36 24.16C20.36 23.3867 20.04 22.8 19.4 22.4C18.76 21.9733 17.9467 21.7067 16.96 21.6C16 21.4933 15.04 21.52 14.08 21.68C13.3333 21.7867 12.7733 22.12 12.4 22.68C12.0267 23.24 11.8533 23.92 11.88 24.72ZM53.76 33.8C54 36.04 53.8267 37.96 53.24 39.56C52.6533 41.16 51.7867 42.48 50.64 43.52C49.52 44.56 48.2533 45.3333 46.84 45.84C45.4533 46.32 44.0667 46.56 42.68 46.56C41.32 46.56 39.9333 46.32 38.52 45.84C37.1333 45.3333 35.88 44.56 34.76 43.52C33.6667 42.48 32.8133 41.16 32.2 39.56C31.6133 37.96 31.44 36.04 31.68 33.8C31.92 31.7467 32.5333 29.9467 33.52 28.4C34.5333 26.8533 35.8133 25.64 37.36 24.76C38.9333 23.8533 40.6533 23.3467 42.52 23.24C42.6267 23.2133 42.7333 23.1333 42.84 23C42.9733 22.84 43.1867 22.7067 43.48 22.6C43.8 22.4667 44.28 22.4267 44.92 22.48C46.44 22.9067 47.8267 23.64 49.08 24.68C50.3333 25.72 51.3733 27.0133 52.2 28.56C53.0533 30.1067 53.5733 31.8533 53.76 33.8ZM42.32 40.16C43.1733 40.16 43.9067 39.96 44.52 39.56C45.1333 39.16 45.6267 38.6533 46 38.04C46.3733 37.4 46.64 36.7333 46.8 36.04C46.9867 35.3467 47.08 34.72 47.08 34.16C47.08 33.0133 46.8933 32.12 46.52 31.48C46.1467 30.84 45.2933 30.2667 43.96 29.76C43.5867 29.6 43.3333 29.3867 43.2 29.12C43.0667 28.8533 42.8667 28.7067 42.6 28.68C41.72 28.5733 40.9733 28.8133 40.36 29.4C39.7467 29.9867 39.28 30.7733 38.96 31.76C38.64 32.7467 38.48 33.8133 38.48 34.96C38.48 36.1067 38.6933 37.0667 39.12 37.84C39.5733 38.6133 40.0933 39.2 40.68 39.6C41.2933 39.9733 41.84 40.16 42.32 40.16ZM79.1497 33.8C79.3897 36.04 79.2164 37.96 78.6297 39.56C78.043 41.16 77.1897 42.48 76.0697 43.52C74.9497 44.56 73.6964 45.3333 72.3097 45.84C70.923 46.32 69.5364 46.56 68.1497 46.56C67.5097 46.56 66.723 46.4933 65.7897 46.36C64.883 46.2267 64.0564 46.28 63.3097 46.52C63.0697 46.6 62.843 46.6667 62.6297 46.72C62.4164 46.7733 62.1364 46.7867 61.7897 46.76C61.4697 46.7333 61.0564 46.5867 60.5497 46.32C60.043 46.0533 59.563 45.6667 59.1097 45.16C58.6564 44.6267 58.3364 44 58.1497 43.28C57.9364 42.48 57.7497 41.3867 57.5897 40C57.4564 38.5867 57.3497 37.0133 57.2697 35.28C57.1897 33.5467 57.1364 31.76 57.1097 29.92C57.083 28.0533 57.0564 26.24 57.0297 24.48C57.0297 22.6933 57.0297 21.08 57.0297 19.64C57.0564 18.2 57.0697 17.0267 57.0697 16.12C57.0697 15.1867 57.0564 14.64 57.0297 14.48C57.4297 14.4 58.0164 14.3867 58.7897 14.44C59.5897 14.4667 60.4164 14.6 61.2697 14.84C62.123 15.0533 62.883 15.4267 63.5497 15.96C64.2164 16.4667 64.6297 17.1733 64.7897 18.08C64.923 18.96 65.0297 19.8133 65.1097 20.64C65.2164 21.44 65.563 22.0267 66.1497 22.4C66.363 22.5333 66.6564 22.64 67.0297 22.72C67.4297 22.7733 67.843 22.8133 68.2697 22.84C70.2164 22.8667 71.963 23.3733 73.5097 24.36C75.083 25.32 76.363 26.6267 77.3497 28.28C78.3364 29.9067 78.9364 31.7467 79.1497 33.8ZM68.5897 40.52C69.523 40.4933 70.2697 40.2267 70.8297 39.72C71.4164 39.1867 71.843 38.52 72.1097 37.72C72.3764 36.92 72.5097 36.1067 72.5097 35.28C72.5097 34.4267 72.4164 33.5733 72.2297 32.72C72.043 31.84 71.683 31.1067 71.1497 30.52C70.643 29.9067 69.9097 29.6 68.9497 29.6C68.1764 29.6 67.5097 29.88 66.9497 30.44C66.3897 30.9733 65.963 31.6533 65.6697 32.48C65.3764 33.28 65.2164 34.0667 65.1897 34.84C65.163 35.5867 65.2697 36.4133 65.5097 37.32C65.7497 38.2 66.123 38.96 66.6297 39.6C67.163 40.2133 67.8164 40.52 68.5897 40.52ZM104.58 33.8C104.82 36.04 104.647 37.96 104.06 39.56C103.474 41.16 102.607 42.48 101.46 43.52C100.34 44.56 99.0736 45.3333 97.6603 45.84C96.2736 46.32 94.887 46.56 93.5003 46.56C92.1403 46.56 90.7536 46.32 89.3403 45.84C87.9536 45.3333 86.7003 44.56 85.5803 43.52C84.487 42.48 83.6336 41.16 83.0203 39.56C82.4336 37.96 82.2603 36.04 82.5003 33.8C82.7403 31.7467 83.3536 29.9467 84.3403 28.4C85.3536 26.8533 86.6336 25.64 88.1803 24.76C89.7536 23.8533 91.4736 23.3467 93.3403 23.24C93.447 23.2133 93.5536 23.1333 93.6603 23C93.7936 22.84 94.007 22.7067 94.3003 22.6C94.6203 22.4667 95.1003 22.4267 95.7403 22.48C97.2603 22.9067 98.647 23.64 99.9003 24.68C101.154 25.72 102.194 27.0133 103.02 28.56C103.874 30.1067 104.394 31.8533 104.58 33.8ZM93.1403 40.16C93.9936 40.16 94.727 39.96 95.3403 39.56C95.9536 39.16 96.447 38.6533 96.8203 38.04C97.1936 37.4 97.4603 36.7333 97.6203 36.04C97.807 35.3467 97.9003 34.72 97.9003 34.16C97.9003 33.0133 97.7136 32.12 97.3403 31.48C96.967 30.84 96.1136 30.2667 94.7803 29.76C94.407 29.6 94.1536 29.3867 94.0203 29.12C93.887 28.8533 93.687 28.7067 93.4203 28.68C92.5403 28.5733 91.7936 28.8133 91.1803 29.4C90.567 29.9867 90.1003 30.7733 89.7803 31.76C89.4603 32.7467 89.3003 33.8133 89.3003 34.96C89.3003 36.1067 89.5136 37.0667 89.9403 37.84C90.3936 38.6133 90.9136 39.2 91.5003 39.6C92.1136 39.9733 92.6603 40.16 93.1403 40.16ZM124.85 23.8C125.117 24.0667 125.317 24.56 125.45 25.28C125.61 25.9733 125.65 26.7467 125.57 27.6C125.517 28.4267 125.317 29.1867 124.97 29.88C124.65 30.5467 124.157 31 123.49 31.24C122.45 31.6133 121.69 32.28 121.21 33.24C120.73 34.2 120.45 35.4133 120.37 36.88V40.28C120.423 40.7067 120.597 41.0533 120.89 41.32C121.21 41.5867 121.517 41.7733 121.81 41.88C122.13 41.9867 122.29 42.04 122.29 42.04C122.29 42.04 122.237 42.2267 122.13 42.6C122.05 42.9733 121.89 43.4133 121.65 43.92C121.41 44.4267 121.063 44.92 120.61 45.4C120.157 45.8533 119.57 46.1733 118.85 46.36C118.477 46.44 117.97 46.4533 117.33 46.4C116.717 46.3733 116.09 46.2533 115.45 46.04C114.81 45.8267 114.277 45.5333 113.85 45.16C113.61 44.9467 113.41 44.72 113.25 44.48C113.09 44.24 112.97 43.88 112.89 43.4C112.837 42.92 112.81 42.24 112.81 41.36V37.08C112.783 35.5333 112.45 34.2533 111.81 33.24C111.17 32.2 110.33 31.3067 109.29 30.56C108.81 30.2133 108.463 29.6533 108.25 28.88C108.063 28.08 107.943 27.24 107.89 26.36C107.837 25.48 107.823 24.7333 107.85 24.12C107.983 24.1467 108.343 24.2 108.93 24.28C109.517 24.36 110.023 24.4 110.45 24.4C111.303 24.3733 111.89 24.04 112.21 23.4C112.53 22.76 112.69 21.96 112.69 21L112.65 17.44C112.89 17.4133 113.29 17.3867 113.85 17.36C114.437 17.3067 115.077 17.3067 115.77 17.36C116.463 17.4133 117.13 17.5467 117.77 17.76C118.437 17.9467 118.997 18.2533 119.45 18.68C119.93 19.1067 120.21 19.68 120.29 20.4C120.29 20.48 120.29 20.5867 120.29 20.72C120.317 20.8267 120.33 20.96 120.33 21.12H120.37C120.37 21.4667 120.41 21.88 120.49 22.36C120.597 22.84 120.743 23.24 120.93 23.56C121.117 23.8267 121.41 24.0267 121.81 24.16C122.21 24.2667 122.597 24.3333 122.97 24.36C123.37 24.36 123.663 24.3333 123.85 24.28C124.143 24.2 124.357 24.1333 124.49 24.08C124.623 24 124.743 23.9067 124.85 23.8ZM147.747 14.2C149.72 14.4933 151.28 15.0267 152.427 15.8C153.6 16.5467 154.467 17.4133 155.027 18.4C155.587 19.3867 155.947 20.36 156.107 21.32C156.267 22.2533 156.347 23.0533 156.347 23.72C156.347 24.5733 156.2 25.56 155.907 26.68C155.613 27.7733 155.12 28.8533 154.427 29.92C153.76 30.96 152.867 31.8667 151.747 32.64C150.627 33.3867 149.227 33.84 147.547 34C147.253 34.0267 146.88 34.0533 146.427 34.08C145.973 34.1067 145.56 34.1333 145.187 34.16C144.84 34.16 144.627 34.16 144.547 34.16C143.533 34.2133 142.6 34.5067 141.747 35.04C140.92 35.5733 140.253 36.2667 139.747 37.12C139.267 37.9467 139.013 38.88 138.987 39.92V41.4C138.987 42.0933 139.08 42.7333 139.267 43.32C139.453 43.88 139.6 44.2667 139.707 44.48C139.067 45.0667 138.507 45.48 138.027 45.72C137.547 45.96 136.947 46.1333 136.227 46.24C135.64 46.32 134.987 46.2667 134.267 46.08C133.573 45.8933 132.947 45.5467 132.387 45.04C131.827 44.5067 131.467 43.7733 131.307 42.84C131.28 42.68 131.267 42.1733 131.267 41.32C131.267 40.44 131.267 39.36 131.267 38.08C131.293 36.7733 131.307 35.3467 131.307 33.8C131.333 32.2533 131.347 30.7067 131.347 29.16C131.347 27.6133 131.347 26.1733 131.347 24.84C131.32 23.4 131.253 22.1867 131.147 21.2C131.067 20.2133 130.867 19.5867 130.547 19.32C129.987 18.84 129.547 18.0933 129.227 17.08C128.933 16.0667 128.8 15.1067 128.827 14.2C128.933 14.2267 129.227 14.2667 129.707 14.32C130.187 14.3467 130.693 14.3867 131.227 14.44C131.493 14.44 131.933 14.44 132.547 14.44C133.16 14.4133 133.827 14.3733 134.547 14.32C135.293 14.2667 136.013 14.2267 136.707 14.2C137.4 14.1467 137.96 14.1067 138.387 14.08C138.973 14.0267 139.747 13.9733 140.707 13.92C141.693 13.8667 142.8 13.8533 144.027 13.88C145.253 13.9067 146.493 14.0133 147.747 14.2ZM142.987 26.68C143.36 26.7067 143.827 26.68 144.387 26.6C144.973 26.4933 145.56 26.3333 146.147 26.12C146.76 25.9067 147.267 25.6133 147.667 25.24C148.067 24.84 148.267 24.36 148.267 23.8C148.267 23.0267 147.973 22.4267 147.387 22C146.827 21.5733 146.133 21.28 145.307 21.12C144.507 20.96 143.733 20.8933 142.987 20.92C141.893 20.9467 140.96 21.2533 140.187 21.84C139.413 22.4 139.027 23.0667 139.027 23.84C139.053 24.3467 139.253 24.8133 139.627 25.24C140.027 25.64 140.52 25.9733 141.107 26.24C141.72 26.5067 142.347 26.6533 142.987 26.68ZM180.09 40.92C180.09 41.16 180.13 41.52 180.21 42C180.29 42.48 180.396 42.9733 180.53 43.48C180.69 43.9867 180.85 44.44 181.01 44.84C181.17 45.2133 181.33 45.44 181.49 45.52C181.116 45.9733 180.516 46.3333 179.69 46.6C178.863 46.8933 178.036 46.9467 177.21 46.76C176.57 46.5733 175.996 46.4 175.49 46.24C174.983 46.08 174.29 46.0133 173.41 46.04C172.77 46.0667 172.13 46.1333 171.49 46.24C170.876 46.3467 170.25 46.4667 169.61 46.6C169.29 46.6533 168.73 46.6667 167.93 46.64C167.156 46.64 166.303 46.5467 165.37 46.36C164.463 46.1733 163.623 45.8533 162.85 45.4C161.836 44.7867 161.076 43.8933 160.57 42.72C160.063 41.5467 159.77 40.3467 159.69 39.12C159.69 38.8267 159.676 38.2533 159.65 37.4C159.65 36.5467 159.636 35.5333 159.61 34.36C159.61 33.1867 159.596 31.9733 159.57 30.72C159.57 29.4667 159.556 28.3067 159.53 27.24C159.53 26.1467 159.53 25.2667 159.53 24.6C159.53 23.9067 159.53 23.56 159.53 23.56C159.77 23.5333 160.17 23.5067 160.73 23.48C161.316 23.4267 161.956 23.4267 162.65 23.48C163.343 23.5333 164.01 23.6667 164.65 23.88C165.316 24.0667 165.876 24.3733 166.33 24.8C166.81 25.2267 167.09 25.8 167.17 26.52C167.223 27.1067 167.263 27.64 167.29 28.12C167.316 28.6 167.33 29.1333 167.33 29.72C167.33 30.28 167.303 30.9867 167.25 31.84C167.223 32.6667 167.183 33.72 167.13 35C167.076 36.04 167.05 36.9333 167.05 37.68C167.076 38.4267 167.263 38.9867 167.61 39.36C167.956 39.7333 168.57 39.8933 169.45 39.84C170.036 39.8133 170.516 39.5867 170.89 39.16C171.29 38.7067 171.61 38.16 171.85 37.52C172.09 36.88 172.25 36.2267 172.33 35.56C172.436 34.8933 172.49 34.3067 172.49 33.8C172.49 33.6933 172.476 33.28 172.45 32.56C172.45 31.84 172.436 30.9867 172.41 30C172.41 28.9867 172.396 27.9867 172.37 27C172.37 26.0133 172.37 25.2 172.37 24.56C172.37 23.8933 172.37 23.56 172.37 23.56C172.61 23.5333 173.01 23.5333 173.57 23.56C174.13 23.56 174.756 23.6133 175.45 23.72C176.143 23.8267 176.823 24.0133 177.49 24.28C178.156 24.5467 178.716 24.92 179.17 25.4C179.65 25.8533 179.93 26.44 180.01 27.16C180.17 28.7067 180.196 30.6 180.09 32.84C180.01 35.0533 180.01 37.7467 180.09 40.92ZM213.766 40.92C213.793 41.24 213.873 41.64 214.006 42.12C214.166 42.5733 214.313 42.9867 214.446 43.36C214.606 43.7333 214.686 43.92 214.686 43.92C214.553 44.08 214.273 44.3733 213.846 44.8C213.419 45.2267 212.873 45.6133 212.206 45.96C211.566 46.28 210.833 46.3733 210.006 46.24C208.539 45.9733 207.539 45.36 207.006 44.4C206.499 43.44 206.233 42.3467 206.206 41.12C206.206 40.9067 206.219 40.4933 206.246 39.88C206.273 39.2667 206.286 38.5867 206.286 37.84C206.313 37.0667 206.313 36.3467 206.286 35.68C206.286 34.9867 206.233 34.48 206.126 34.16C205.966 33.5467 205.726 33.1733 205.406 33.04C205.086 32.9067 204.753 32.9333 204.406 33.12C204.059 33.28 203.766 33.5467 203.526 33.92C203.286 34.2933 203.166 34.6933 203.166 35.12C203.139 35.7867 203.126 36.36 203.126 36.84C203.126 37.32 203.139 37.9467 203.166 38.72C203.166 38.9067 203.193 39.2533 203.246 39.76C203.299 40.2667 203.366 40.84 203.446 41.48C203.526 42.12 203.606 42.7467 203.686 43.36C203.793 43.9467 203.899 44.4267 204.006 44.8C203.339 45.28 202.553 45.68 201.646 46C200.766 46.32 199.633 46.32 198.246 46C197.526 45.84 196.993 45.5067 196.646 45C196.299 44.4933 196.059 43.9067 195.926 43.24C195.819 42.5467 195.766 41.84 195.766 41.12C195.766 40.4 195.766 39.7333 195.766 39.12C195.766 38.8267 195.779 38.36 195.806 37.72C195.859 37.08 195.886 36.4133 195.886 35.72C195.886 35 195.819 34.4267 195.686 34C195.579 33.6533 195.406 33.44 195.166 33.36C194.953 33.2533 194.766 33.2133 194.606 33.24C194.179 33.2667 193.806 33.3867 193.486 33.6C193.193 33.8133 192.993 34.2533 192.886 34.92C192.833 35.24 192.793 35.7733 192.766 36.52C192.766 37.24 192.766 38.0133 192.766 38.84C192.766 39.64 192.766 40.3467 192.766 40.96C192.793 41.5733 192.819 41.9333 192.846 42.04C192.926 42.4133 193.086 42.6933 193.326 42.88C193.566 43.04 193.686 43.12 193.686 43.12C193.686 43.12 193.539 43.2933 193.246 43.64C192.979 43.96 192.606 44.3333 192.126 44.76C191.646 45.1867 191.086 45.56 190.446 45.88C189.806 46.1733 189.113 46.28 188.366 46.2C187.646 46.1467 186.966 45.7733 186.326 45.08C185.713 44.3867 185.393 43.4267 185.366 42.2L185.246 26.84C185.219 25.88 185.113 25.0933 184.926 24.48C184.766 23.8667 184.686 23.56 184.686 23.56C184.953 23.5067 185.433 23.4667 186.126 23.44C186.819 23.4133 187.593 23.44 188.446 23.52C189.299 23.5733 190.073 23.76 190.766 24.08C191.193 24.2667 191.673 24.3467 192.206 24.32C192.766 24.2667 193.246 24.12 193.646 23.88C194.099 23.64 194.553 23.4267 195.006 23.24C195.486 23.0533 195.966 22.9333 196.446 22.88C197.006 22.8267 197.686 22.88 198.486 23.04C199.286 23.2 200.113 23.4933 200.966 23.92C201.499 24.1867 202.126 24.3733 202.846 24.48C203.566 24.5867 204.059 24.5467 204.326 24.36C204.859 23.9867 205.419 23.6667 206.006 23.4C206.619 23.1333 207.233 22.96 207.846 22.88C208.299 22.8267 208.833 22.8533 209.446 22.96C210.086 23.04 210.699 23.24 211.286 23.56C211.899 23.88 212.419 24.3333 212.846 24.92C213.299 25.5067 213.579 26.2533 213.686 27.16C213.766 27.9333 213.806 28.9467 213.806 30.2C213.833 31.4267 213.833 32.7333 213.806 34.12C213.779 35.48 213.753 36.7733 213.726 38C213.726 39.2 213.739 40.1733 213.766 40.92ZM229.55 22.88C231.924 22.6933 233.924 23.0933 235.55 24.08C237.177 25.04 238.417 26.3867 239.27 28.12C240.124 29.8267 240.564 31.72 240.59 33.8C240.644 35.72 240.364 37.4267 239.75 38.92C239.137 40.3867 238.297 41.64 237.23 42.68C236.164 43.6933 234.964 44.4667 233.63 45C232.324 45.5333 230.977 45.8 229.59 45.8C229.297 45.8 228.91 45.84 228.43 45.92C227.977 45.9733 227.604 46.12 227.31 46.36C227.124 46.5467 226.99 46.7467 226.91 46.96C226.857 47.1733 226.844 47.4267 226.87 47.72C226.924 48.2 227.03 48.5333 227.19 48.72C227.377 48.9333 227.537 49.16 227.67 49.4C227.377 49.72 226.964 50.0667 226.43 50.44C225.897 50.8133 225.244 51.1067 224.47 51.32C223.724 51.5333 222.83 51.56 221.79 51.4C221.15 51.2933 220.59 50.88 220.11 50.16C219.63 49.44 219.377 48.4667 219.35 47.24L219.23 28.64C219.23 27.1467 219.137 25.9333 218.95 25C218.764 24.04 218.67 23.56 218.67 23.56C219.017 23.4533 219.564 23.36 220.31 23.28C221.084 23.2 221.884 23.2533 222.71 23.44C223.03 23.52 223.43 23.6133 223.91 23.72C224.417 23.8 224.964 23.8 225.55 23.72C226.324 23.64 227.097 23.4933 227.87 23.28C228.644 23.04 229.204 22.9067 229.55 22.88ZM230.31 39.52C231.164 39.52 231.964 39.08 232.71 38.2C233.457 37.2933 233.83 36.0267 233.83 34.4C233.83 33.3067 233.644 32.3867 233.27 31.64C232.924 30.8667 232.484 30.2933 231.95 29.92C231.417 29.52 230.897 29.32 230.39 29.32C229.884 29.32 229.364 29.36 228.83 29.44C228.324 29.52 227.87 29.8267 227.47 30.36C227.097 30.8933 226.857 31.84 226.75 33.2C226.617 34.96 226.724 36.2933 227.07 37.2C227.444 38.1067 227.937 38.72 228.55 39.04C229.164 39.36 229.75 39.52 230.31 39.52Z" fill="white"/>
</svg>
